<svg>
	<symbol id="arrow" width="12" height="7" viewBox="0 0 12 7" fill="none" xmlns="http://www.w3.org/2000/svg">
		<path d="M11.2797 0.966797L5.99968 5.66683L0.719727 0.966797" stroke="#516DB0" stroke-miterlimit="10" stroke-linecap="round" stroke-linejoin="round"/>
	</symbol>
	<symbol id="car"  viewBox="0 0 41 40" fill="none" xmlns="http://www.w3.org/2000/svg">
		<path d="M15.5 35H8V30H10.5V27.5H8V21.25H10.5V18.75H8V12.5H10.5V10H8V5H30.5V15H33V5C33 4.33696 32.7366 3.70107 32.2678 3.23223C31.7989 2.76339 31.163 2.5 30.5 2.5H8C7.33696 2.5 6.70107 2.76339 6.23223 3.23223C5.76339 3.70107 5.5 4.33696 5.5 5V10H3V12.5H5.5V18.75H3V21.25H5.5V27.5H3V30H5.5V35C5.5 35.663 5.76339 36.2989 6.23223 36.7678C6.70107 37.2366 7.33696 37.5 8 37.5H15.5V35Z" fill="currentColor"/>
		<path d="M33.9215 23.8119H30.219V21.25H19.1483C18.5108 21.25 18 21.723 18 22.3134V32.209C18 32.7993 18.5108 33.2723 19.1483 33.2723H20.4724C20.4397 33.4275 20.4234 33.5826 20.4234 33.7454C20.4234 35.1644 21.6575 36.3073 23.19 36.3073C24.7225 36.3073 26.0016 35.1644 25.9567 33.7454C25.9567 33.5826 25.9403 33.4275 25.9076 33.2723H29.4017H30.2109H30.9873C30.9546 33.4275 30.9383 33.5826 30.9383 33.7454C30.9383 35.1644 32.1725 36.3073 33.7049 36.3073C35.2374 36.3073 36.4716 35.1644 36.4716 33.7454C36.4716 33.5826 36.4553 33.4275 36.4226 33.2723H36.8517C37.4892 33.2723 38 32.7993 38 32.1674V28.5005L33.9215 23.8119ZM23.1941 35.5618C22.1316 35.5618 21.2366 34.733 21.2366 33.7491C21.2366 32.7653 22.1316 31.9365 23.1941 31.9365C24.3016 31.9365 25.1516 32.7653 25.1516 33.7491C25.1516 34.733 24.2566 35.5618 23.1941 35.5618ZM25.6052 32.4852C25.1312 31.7095 24.2321 31.1835 23.1941 31.1835C22.1561 31.1835 21.257 31.7057 20.783 32.4852H19.1483C18.9767 32.4852 18.85 32.3679 18.85 32.209V22.3171C18.85 22.1582 18.9767 22.0409 19.1483 22.0409H29.4099V32.489H25.6052V32.4852ZM33.709 35.558C32.6465 35.558 31.7515 34.7292 31.7515 33.7454C31.7515 32.7615 32.6465 31.9327 33.709 31.9327C34.7716 31.9327 35.6665 32.7615 35.6665 33.7454C35.6665 34.7292 34.7716 35.558 33.709 35.558ZM37.199 32.1674C37.199 32.3263 37.0274 32.4814 36.8598 32.4814H36.1201C35.6461 31.7057 34.747 31.1797 33.709 31.1797C32.671 31.1797 31.772 31.7019 31.2979 32.4814H30.2599V24.5574H33.5374L37.199 28.7767V32.1674Z" fill="currentColor" stroke="currentColor" stroke-width="0.75"/>
	</symbol>
	<symbol id="service2"  viewBox="0 0 41 40" fill="none" xmlns="http://www.w3.org/2000/svg">
		<path d="M25.8207 20.0578C26.6873 19.7245 27.6467 19.7245 28.5132 20.0578L34.7157 22.4428C35.4395 22.7216 35.917 23.4178 35.917 24.1928V32.4753C35.917 32.8543 35.8023 33.2243 35.5878 33.5367C35.3734 33.8491 35.0693 34.0892 34.7157 34.2253L28.5132 36.6116C27.6467 36.9449 26.6873 36.9449 25.8207 36.6116L19.6195 34.2253C19.2657 34.0894 18.9613 33.8494 18.7467 33.537C18.532 33.2245 18.417 32.8544 18.417 32.4753V24.1928C18.417 23.8138 18.532 23.4436 18.7467 23.1312C18.9613 22.8188 19.2657 22.5788 19.6195 22.4428L25.8207 20.0578ZM28.0645 21.2241C27.4868 21.0019 26.8472 21.0019 26.2695 21.2241L24.5395 21.8903L31.527 24.5353L33.962 23.4928L28.0645 21.2241ZM34.667 24.5491L27.792 27.4966V35.5316C27.8845 35.5078 27.9745 35.4791 28.0645 35.4441L34.267 33.0591C34.3849 33.0136 34.4862 32.9335 34.5576 32.8293C34.629 32.7251 34.6671 32.6017 34.667 32.4753V24.5503V24.5491ZM26.542 35.5316V27.4966L19.667 24.5503V32.4753C19.6669 32.6017 19.705 32.7251 19.7764 32.8293C19.8478 32.9335 19.9491 33.0136 20.067 33.0591L26.2695 35.4441C26.3595 35.4791 26.4495 35.5078 26.542 35.5316ZM20.372 23.4928L27.167 26.4053L29.872 25.2453L22.7882 22.5628L20.372 23.4928Z" fill="currentColor" stroke="currentColor" stroke-width="0.3"/>
		<path d="M15.5 35H8V30H10.5V27.5H8V21.25H10.5V18.75H8V12.5H10.5V10H8V5H30.5V15H33V5C33 4.33696 32.7366 3.70107 32.2678 3.23223C31.7989 2.76339 31.163 2.5 30.5 2.5H8C7.33696 2.5 6.70107 2.76339 6.23223 3.23223C5.76339 3.70107 5.5 4.33696 5.5 5V10H3V12.5H5.5V18.75H3V21.25H5.5V27.5H3V30H5.5V35C5.5 35.663 5.76339 36.2989 6.23223 36.7678C6.70107 37.2366 7.33696 37.5 8 37.5H15.5V35Z" fill="currentColor"/>
	</symbol>
	<symbol id="service3"  viewBox="0 0 41 40" fill="none" xmlns="http://www.w3.org/2000/svg">
		<path d="M16.3337 29.6428C16.1066 29.6423 15.8798 29.6274 15.6547 29.5983C13.5751 26.2659 12.4236 22.4384 12.3194 18.5118H30.4497C30.474 18.1759 30.5003 17.8409 30.5003 17.4999C30.5003 14.698 29.6695 11.959 28.1128 9.62934C26.5562 7.29965 24.3436 5.48387 21.755 4.41163C19.1664 3.33939 16.3179 3.05884 13.5699 3.60547C10.8218 4.15209 8.29756 5.50133 6.31632 7.48258C4.33507 9.46382 2.98583 11.9881 2.43921 14.7361C1.89258 17.4842 2.17313 20.3326 3.24537 22.9213C4.31761 25.5099 6.13339 27.7224 8.46309 29.2791C10.7928 30.8357 13.5318 31.6666 16.3337 31.6666V29.6428ZM28.4259 16.488H22.3676C22.2588 12.7645 21.3063 9.11432 19.5819 5.81242C21.9684 6.47839 24.0944 7.85777 25.6751 9.76577C27.2557 11.6738 28.2155 14.0193 28.4259 16.488ZM17.0116 5.40159C19.0916 8.73382 20.2434 12.5613 20.3479 16.488H12.3194C12.4239 12.5613 13.5757 8.73382 15.6557 5.40159C16.1064 5.34247 16.5629 5.34247 17.0137 5.40159H17.0116ZM13.0844 5.81141C11.3603 9.11373 10.4081 12.7643 10.2997 16.488H4.2414C4.45193 14.0193 5.4118 11.6739 6.99244 9.76591C8.57308 7.85794 10.698 6.4775 13.0844 5.81141ZM4.2414 18.5118H10.2997C10.4086 22.2353 11.3611 25.8855 13.0855 29.1874C10.699 28.5213 8.57308 27.1419 6.99244 25.2339C5.4118 23.326 4.45193 20.9805 4.2414 18.5118Z" fill="currentColor"/>
		<path d="M35.0947 24.0151H31.7008V21.6667H21.5526C20.9683 21.6667 20.5 22.1004 20.5 22.6415V31.7125C20.5 32.2536 20.9683 32.6872 21.5526 32.6872H22.7664C22.7364 32.8294 22.7214 32.9717 22.7214 33.1208C22.7214 34.4216 23.8527 35.4692 25.2575 35.4692C26.6623 35.4692 27.8348 34.4216 27.7936 33.1208C27.7936 32.9717 27.7786 32.8294 27.7487 32.6872H30.9516H31.6933H32.4051C32.3751 32.8294 32.3601 32.9717 32.3601 33.1208C32.3601 34.4216 33.4914 35.4692 34.8962 35.4692C36.301 35.4692 37.4323 34.4216 37.4323 33.1208C37.4323 32.9717 37.4173 32.8294 37.3873 32.6872H37.7807C38.3651 32.6872 38.8333 32.2536 38.8333 31.6743V28.313L35.0947 24.0151ZM25.2613 34.7859C24.2873 34.7859 23.4669 34.0262 23.4669 33.1243C23.4669 32.2224 24.2873 31.4627 25.2613 31.4627C26.2765 31.4627 27.0556 32.2224 27.0556 33.1243C27.0556 34.0262 26.2353 34.7859 25.2613 34.7859ZM27.4715 31.9657C27.0369 31.2546 26.2128 30.7724 25.2613 30.7724C24.3098 30.7724 23.4856 31.2511 23.0511 31.9657H21.5526C21.3953 31.9657 21.2792 31.8582 21.2792 31.7125V22.645C21.2792 22.4993 21.3953 22.3917 21.5526 22.3917H30.9591V31.9692H27.4715V31.9657ZM34.8999 34.7824C33.926 34.7824 33.1056 34.0227 33.1056 33.1208C33.1056 32.2189 33.926 31.4593 34.8999 31.4593C35.8739 31.4593 36.6943 32.2189 36.6943 33.1208C36.6943 34.0227 35.8739 34.7824 34.8999 34.7824ZM38.0991 31.6743C38.0991 31.82 37.9418 31.9622 37.7882 31.9622H37.1101C36.6756 31.2511 35.8514 30.769 34.8999 30.769C33.9484 30.769 33.1243 31.2477 32.6898 31.9622H31.7382V24.6985H34.7426L38.0991 28.5663V31.6743Z" fill="currentColor" stroke="currentColor" stroke-width="0.6875"/>
	</symbol>
	<symbol id="service4"  viewBox="0 0 41 40" fill="none" xmlns="http://www.w3.org/2000/svg">
		<g clip-path="url(#clip0_7867_411849)">
		<path d="M9.79688 18.7902H15.6406V23.6912H9.79688V18.7902ZM9.79688 30.2101H15.6406V25.3091H9.79688V30.2101ZM9.79688 36.7133H15.6406V31.8124H9.79688V36.7133ZM17.375 30.2101H23.2031V25.3091H17.3594V30.2101H17.375ZM17.375 36.7133H23.2031V31.8124H17.3594V36.7133H17.375ZM24.9531 31.8124V36.7133H30.7969V31.8124H24.9531ZM40.0781 12.6954L20.2812 3.33325L0.5 12.7268L1.73438 15.3187L4.25 14.1091V36.729H7.09375V14.0149H33.5V36.7605H36.3438V14.1405L38.8594 15.3187L40.0781 12.6954Z" fill="currentColor"/>
		</g>
		<defs>
		<clipPath id="clip0_7867_411849">
		<rect width="40" height="40" fill="white" transform="translate(0.5)"/>
		</clipPath>
		</defs>
	</symbol>
	<svg id="service5"  viewBox="0 0 41 40" fill="none" xmlns="http://www.w3.org/2000/svg">
		<g clip-path="url(#clip0_7867_411843)">
		<path d="M40.078 12.6954L20.2812 3.33325L0.499909 12.7268L1.73428 15.3187L4.24991 14.1091V36.729H7.09366V14.0149H33.4999V36.7605H36.3437V14.1405L38.8593 15.3187L40.078 12.6954Z" fill="currentColor"/>
		<path d="M26.9307 22.8203H23.5367V20.4719H13.3886C12.8042 20.4719 12.3359 20.9055 12.3359 21.4467V30.5177C12.3359 31.0588 12.8042 31.4924 13.3886 31.4924H14.6023C14.5723 31.6346 14.5574 31.7768 14.5574 31.926C14.5574 33.2268 15.6887 34.2744 17.0935 34.2744C18.4982 34.2744 19.6708 33.2268 19.6296 31.926C19.6296 31.7768 19.6146 31.6346 19.5846 31.4924H22.7875H23.5292H24.241C24.211 31.6346 24.196 31.7768 24.196 31.926C24.196 33.2268 25.3274 34.2744 26.7321 34.2744C28.1369 34.2744 29.2682 33.2268 29.2682 31.926C29.2682 31.7768 29.2533 31.6346 29.2233 31.4924H29.6166C30.201 31.4924 30.6693 31.0588 30.6693 30.4795V27.1182L26.9307 22.8203ZM17.0972 33.591C16.1232 33.591 15.3028 32.8314 15.3028 31.9295C15.3028 31.0276 16.1232 30.2679 17.0972 30.2679C18.1124 30.2679 18.8916 31.0276 18.8916 31.9295C18.8916 32.8314 18.0712 33.591 17.0972 33.591ZM19.3074 30.7709C18.8729 30.0598 18.0487 29.5776 17.0972 29.5776C16.1457 29.5776 15.3216 30.0563 14.887 30.7709H13.3886C13.2313 30.7709 13.1151 30.6633 13.1151 30.5177V21.4501C13.1151 21.3044 13.2313 21.1969 13.3886 21.1969H22.795V30.7744H19.3074V30.7709ZM26.7359 33.5876C25.7619 33.5876 24.9415 32.8279 24.9415 31.926C24.9415 31.0241 25.7619 30.2644 26.7359 30.2644C27.7099 30.2644 28.5303 31.0241 28.5303 31.926C28.5303 32.8279 27.7099 33.5876 26.7359 33.5876ZM29.935 30.4795C29.935 30.6252 29.7777 30.7674 29.6241 30.7674H28.9461C28.5115 30.0563 27.6874 29.5741 26.7359 29.5741C25.7844 29.5741 24.9602 30.0528 24.5257 30.7674H23.5742V23.5037H26.5785L29.935 27.3714V30.4795Z" fill="currentColor" stroke="currentColor" stroke-width="0.6875"/>
		</g>
		<defs>
		<clipPath id="clip0_7867_411843">
		<rect width="40" height="40" fill="white" transform="translate(0.5)"/>
		</clipPath>
		</defs>
	</svg>
	<symbol id="burger" width="35" height="35" viewBox="0 0 35 35" fill="none" xmlns="http://www.w3.org/2000/svg">
		<line x1="3" y1="18" x2="33" y2="18" stroke="currentColor" stroke-width="3" stroke-linecap="round"/>
		<line x1="19.5" y1="7.5" x2="33" y2="7.5" stroke="currentColor" stroke-width="3" stroke-linecap="round"/>
		<line x1="3" y1="28.5" x2="16.5" y2="28.5" stroke="currentColor" stroke-width="3" stroke-linecap="round"/>
	</symbol>
	<symbol id="services" width="22" height="22" viewBox="0 0 22 22" fill="none" xmlns="http://www.w3.org/2000/svg">
		<g clip-path="url(#clip0_10017_458947)">
		<path d="M9.16661 0H0.833346C0.373094 0 0 0.373094 0 0.833346V9.16665C0 9.62691 0.373094 10 0.833346 10H9.16665C9.62691 10 10 9.62691 10 9.16665V0.833346C9.99995 0.373094 9.62686 0 9.16661 0ZM8.33331 8.33331H1.66664V1.66664H8.33326V8.33331H8.33331Z" fill="#2F3A55"/>
		<path d="M9.16661 12H0.833346C0.373094 12 0 12.3731 0 12.8333V21.1666C0 21.6269 0.373094 22 0.833346 22H9.16665C9.62691 22 10 21.6269 10 21.1666V12.8333C9.99995 12.3731 9.62686 12 9.16661 12ZM8.33331 20.3333H1.66664V13.6667H8.33326V20.3333H8.33331Z" fill="#FF7D05"/>
		<path d="M21.1667 0H12.8333C12.3731 0 12 0.373094 12 0.833345V9.16665C12 9.6269 12.3731 9.99999 12.8333 9.99999H21.1667C21.6269 9.99999 22 9.6269 22 9.16665V0.833345C22 0.373094 21.6269 0 21.1667 0ZM20.3333 8.3333H13.6667V1.66664H20.3333V8.3333Z" fill="#FF7D05"/>
		<path d="M21.1667 12H12.8333C12.3731 12 12 12.3731 12 12.8333V21.1666C12 21.6269 12.3731 22 12.8333 22H21.1667C21.6269 22 22 21.6269 22 21.1666V12.8333C22 12.3731 21.6269 12 21.1667 12ZM20.3333 20.3333H13.6667V13.6666H20.3333V20.3333Z" fill="#2F3A55"/>
		</g>
		<defs>
		<clipPath id="clip0_10017_458947">
		<rect width="22" height="22" fill="white"/>
		</clipPath>
		</defs>
	</symbol>
	<symbol id="reg" width="22" height="22" viewBox="0 0 22 22" fill="none" xmlns="http://www.w3.org/2000/svg">
		<path d="M2.72446 22C1.97523 22 1.33408 21.731 0.80099 21.1929C0.266997 20.6539 0 20.0063 0 19.25C0 18.4937 0.266997 17.8461 0.80099 17.3071C1.33408 16.769 1.97523 16.5 2.72446 16.5C3.47368 16.5 4.11484 16.769 4.64793 17.3071C5.18192 17.8461 5.44892 18.4937 5.44892 19.25C5.44892 20.0063 5.18192 20.6539 4.64793 21.1929C4.11484 21.731 3.47368 22 2.72446 22ZM2.72446 13.75C1.97523 13.75 1.33408 13.4805 0.80099 12.9415C0.266997 12.4034 0 11.7563 0 11C0 10.2437 0.266997 9.59612 0.80099 9.05713C1.33408 8.51904 1.97523 8.25 2.72446 8.25C3.47368 8.25 4.11484 8.51904 4.64793 9.05713C5.18192 9.59612 5.44892 10.2437 5.44892 11C5.44892 11.7563 5.18192 12.4034 4.64793 12.9415C4.11484 13.4805 3.47368 13.75 2.72446 13.75ZM2.72446 5.5C1.97523 5.5 1.33408 5.2305 0.80099 4.6915C0.266997 4.15342 0 3.50625 0 2.75C0 1.99375 0.266997 1.34658 0.80099 0.8085C1.33408 0.2695 1.97523 0 2.72446 0C3.47368 0 4.11484 0.2695 4.64793 0.8085C5.18192 1.34658 5.44892 1.99375 5.44892 2.75C5.44892 3.50625 5.18192 4.15342 4.64793 4.6915C4.11484 5.2305 3.47368 5.5 2.72446 5.5ZM10.8978 13.75C10.1486 13.75 9.50745 13.4805 8.97437 12.9415C8.44037 12.4034 8.17337 11.7563 8.17337 11C8.17337 10.2437 8.44037 9.59612 8.97437 9.05713C9.50745 8.51904 10.1486 8.25 10.8978 8.25C11.6471 8.25 12.2887 8.51904 12.8227 9.05713C13.3557 9.59612 13.6223 10.2437 13.6223 11L10.8978 13.75ZM10.8978 5.5C10.1486 5.5 9.50745 5.2305 8.97437 4.6915C8.44037 4.15342 8.17337 3.50625 8.17337 2.75C8.17337 1.99375 8.44037 1.34658 8.97437 0.8085C9.50745 0.2695 10.1486 0 10.8978 0C11.6471 0 12.2887 0.2695 12.8227 0.8085C13.3557 1.34658 13.6223 1.99375 13.6223 2.75C13.6223 3.50625 13.3557 4.15342 12.8227 4.6915C12.2887 5.2305 11.6471 5.5 10.8978 5.5ZM9.5356 22V19.0781L16.7554 11.7906L19.6502 14.7125L12.4303 22H9.5356ZM19.0712 5.5C18.322 5.5 17.6804 5.2305 17.1464 4.6915C16.6133 4.15342 16.3467 3.50625 16.3467 2.75C16.3467 1.99375 16.6133 1.34658 17.1464 0.8085C17.6804 0.2695 18.322 0 19.0712 0C19.8204 0 20.462 0.2695 20.996 0.8085C21.5291 1.34658 21.7957 1.99375 21.7957 2.75C21.7957 3.50625 21.5291 4.15342 20.996 4.6915C20.462 5.2305 19.8204 5.5 19.0712 5.5ZM20.6037 13.75L17.709 10.8281L18.6966 9.83125C18.969 9.55625 19.2928 9.41875 19.6679 9.41875C20.042 9.41875 20.354 9.55625 20.6037 9.83125L21.5913 10.8281C21.8638 11.0802 22 11.3951 22 11.7728C22 12.1513 21.8638 12.4781 21.5913 12.7531L20.6037 13.75Z" fill="currentColor"/>
	</symbol>
	<symbol id="logout" width="22" height="22" viewBox="0 0 22 22" fill="none" xmlns="http://www.w3.org/2000/svg">
		<g clip-path="url(#clip0_10017_459095)">
		<path d="M19.2593 20.6103H11.0371C10.8081 20.6103 10.6236 20.7948 10.6236 21.0238C10.6236 21.2529 10.8081 21.4374 11.0371 21.4374H19.2593C20.4942 21.4374 21.5 20.4316 21.5 19.1967V2.75245C21.5 1.51755 20.4942 0.511719 19.2593 0.511719H11.0371C10.8081 0.511719 10.6236 0.696238 10.6236 0.925354C10.6236 1.15441 10.8081 1.3389 11.0371 1.3389H19.2593C20.0397 1.3389 20.6729 1.972 20.6729 2.75245V19.1967C20.6729 19.9771 20.0398 20.6103 19.2593 20.6103Z" fill="currentColor" stroke="currentColor"/>
		<path d="M0.272482 10.3226L5.82699 4.84114C6.18512 4.48666 6.76431 4.49126 7.11878 4.85029C7.47325 5.20931 7.4696 5.7876 7.10962 6.14207L3.14018 10.0594H13.7769C14.2821 10.0594 14.6904 10.4678 14.6904 10.973C14.6904 11.4782 14.2821 11.8866 13.7769 11.8866H3.14018L7.10962 15.8039C7.46955 16.1584 7.4723 16.7367 7.11878 17.0957C6.93974 17.2766 6.70402 17.368 6.46831 17.368C6.23625 17.368 6.00423 17.2803 5.82699 17.1048L0.272482 11.6234C0.0988979 11.4517 0.000247002 11.2178 0.000247002 10.9729C0.000247002 10.7282 0.0979958 10.4952 0.272482 10.3226Z" fill="currentColor"/>
		</g>
		<defs>
		<clipPath id="clip0_10017_459095">
		<rect width="22" height="22" fill="currentColor"/>
		</clipPath>
		</defs>
	</symbol>
	<symbol id="partners" viewBox="0 0 79 79" fill="none" xmlns="http://www.w3.org/2000/svg">
		<path d="M31.2709 58.5447C30.8225 58.5437 30.3746 58.5143 29.9299 58.4567C25.8227 51.8754 23.5486 44.3161 23.3428 36.5611H59.1502C59.1981 35.8976 59.2501 35.236 59.2501 34.5626C59.2501 29.0288 57.6091 23.6193 54.5347 19.0182C51.4604 14.417 47.0906 10.8309 41.9781 8.71317C36.8656 6.5955 31.2399 6.04142 25.8125 7.121C20.385 8.20058 15.3996 10.8653 11.4867 14.7783C7.57371 18.6912 4.90895 23.6767 3.82937 29.1041C2.74979 34.5315 3.30387 40.1572 5.42155 45.2697C7.53922 50.3822 11.1254 54.752 15.7265 57.8264C20.3277 60.9008 25.7372 62.5417 31.2709 62.5417V58.5447ZM55.1531 32.564H43.188C42.9731 25.2102 41.0919 18.001 37.6861 11.4797C42.3995 12.795 46.5984 15.5193 49.7202 19.2876C52.842 23.0559 54.7376 27.6883 55.1531 32.564ZM32.6099 10.6683C36.7179 17.2495 38.9927 24.8088 39.199 32.564H23.3428C23.5492 24.8088 25.824 17.2495 29.9319 10.6683C30.8221 10.5516 31.7237 10.5516 32.6139 10.6683H32.6099ZM24.8537 11.4777C21.4486 17.9998 19.568 25.2097 19.3538 32.564H7.38871C7.8045 27.6884 9.70024 23.0561 12.822 19.2879C15.9438 15.5196 20.1405 12.7933 24.8537 11.4777ZM7.38871 36.5611H19.3538C19.5689 43.9149 21.4501 51.124 24.8557 57.6454C20.1425 56.3298 15.9438 53.6055 12.822 49.8372C9.70024 46.069 7.8045 41.4367 7.38871 36.5611Z" fill="currentColor"/>
		<path d="M68.3246 47.4297H61.6216V42.7916H41.579C40.4248 42.7916 39.5 43.648 39.5 44.7167V62.632C39.5 63.7007 40.4248 64.5571 41.579 64.5571H43.9761C43.9169 64.838 43.8873 65.1188 43.8873 65.4134C43.8873 67.9825 46.1217 70.0515 48.8961 70.0515C51.6706 70.0515 53.9863 67.9825 53.9049 65.4134C53.9049 65.1188 53.8753 64.838 53.8161 64.5571H60.1419H61.6068H63.0125C62.9533 64.838 62.9237 65.1188 62.9237 65.4134C62.9237 67.9825 65.1581 70.0515 67.9325 70.0515C70.7069 70.0515 72.9413 67.9825 72.9413 65.4134C72.9413 65.1188 72.9117 64.838 72.8525 64.5571H73.6294C74.7835 64.5571 75.7083 63.7007 75.7083 62.5566V55.918L68.3246 47.4297ZM48.9035 68.7019C46.9799 68.7019 45.3596 67.2015 45.3596 65.4203C45.3596 63.639 46.9799 62.1387 48.9035 62.1387C50.9085 62.1387 52.4474 63.639 52.4474 65.4203C52.4474 67.2015 50.8271 68.7019 48.9035 68.7019ZM53.2686 63.1321C52.4104 61.7276 50.7827 60.7753 48.9035 60.7753C47.0243 60.7753 45.3966 61.7208 44.5384 63.1321H41.579C41.2682 63.1321 41.0389 62.9197 41.0389 62.632V44.7236C41.0389 44.4359 41.2682 44.2235 41.579 44.2235H60.1567V63.1389H53.2686V63.1321ZM67.9399 68.695C66.0163 68.695 64.396 67.1947 64.396 65.4134C64.396 63.6322 66.0163 62.1318 67.9399 62.1318C69.8635 62.1318 71.4838 63.6322 71.4838 65.4134C71.4838 67.1947 69.8635 68.695 67.9399 68.695ZM74.2582 62.5566C74.2582 62.8443 73.9475 63.1252 73.6441 63.1252H72.305C71.4468 61.7208 69.8191 60.7685 67.9399 60.7685C66.0607 60.7685 64.433 61.7139 63.5748 63.1252H61.6955V48.7793H67.6292L74.2582 56.4181V62.5566Z" fill="#F6F6FA" stroke="#F6F6FA" stroke-width="2"/>
	</symbol>
	<symbol id="pros1" viewBox="0 0 90 90" fill="none" xmlns="http://www.w3.org/2000/svg">
		<path d="M71.3147 32.4229C67.2893 21.7969 57.0325 14.2383 45.0178 14.2383C33.0032 14.2383 22.7464 21.7881 18.721 32.4141C11.1536 34.4092 5.58131 41.3262 5.62526 49.5352C5.67799 58.7109 12.7971 66.1729 21.762 66.9727C22.1751 67.0078 22.5266 66.6826 22.5266 66.2695V60.9609C22.5266 60.6094 22.263 60.3105 21.9114 60.2666C19.5383 59.9678 17.2971 58.9307 15.5745 57.2344C13.4651 55.1689 12.3049 52.3916 12.3049 49.4473C12.3049 46.9863 13.1048 44.666 14.6077 42.7324C16.0755 40.8516 18.1409 39.4893 20.4172 38.8916L23.7483 38.0127L24.97 34.7871C25.7258 32.7832 26.7805 30.9023 28.1077 29.2061C29.4172 27.5186 30.9729 26.042 32.7132 24.8115C36.3255 22.2715 40.5794 20.9268 45.0178 20.9268C49.4563 20.9268 53.7102 22.2715 57.3225 24.8203C59.0715 26.0508 60.6184 27.5273 61.928 29.2148C63.2551 30.9111 64.3098 32.792 65.0657 34.7959L66.2786 38.0127L69.6008 38.8916C74.3645 40.1572 77.6956 44.4902 77.6956 49.4385C77.6956 52.3916 76.5354 55.1602 74.426 57.2256C72.7122 58.9131 70.4798 59.959 68.1067 60.2578C67.7551 60.3018 67.5003 60.6006 67.5003 60.9521V66.2695C67.5003 66.6826 67.8606 67.0078 68.2737 66.9727C77.2122 66.1641 84.3137 58.7109 84.3753 49.5527C84.428 41.3437 78.8645 34.4268 71.3147 32.4229Z" fill="#2F3A55"/>
		<path d="M33.1257 57.6914C33.2839 54.7471 34.5056 52.0049 36.5974 49.9043C38.8298 47.6631 41.8708 46.4062 45.0349 46.4062C48.2165 46.4062 51.2136 47.6455 53.4724 49.9043C53.5954 50.0273 53.7097 50.1504 53.8327 50.2822L51.6355 52.0049C51.5308 52.0859 51.4511 52.1948 51.4055 52.319C51.36 52.4433 51.3504 52.5779 51.378 52.7073C51.4055 52.8368 51.469 52.9559 51.5612 53.0508C51.6534 53.1458 51.7705 53.2128 51.8991 53.2441L60.53 55.3535C60.9694 55.459 61.4001 55.125 61.4001 54.6768L61.4441 45.7734C61.4441 45.1846 60.7761 44.8506 60.3103 45.2197L58.2712 46.8193C55.0544 43.1279 50.3259 40.79 45.0437 40.79C35.6042 40.79 27.905 48.2695 27.5183 57.6387C27.5007 58.0342 27.8171 58.3682 28.2214 58.3682H32.4314C32.8005 58.3594 33.1081 58.0693 33.1257 57.6914ZM61.7868 58.3594H57.5769C57.2077 58.3594 56.9001 58.6494 56.8737 59.0273C56.7155 61.9717 55.4939 64.7139 53.4021 66.8145C51.1696 69.0557 48.1286 70.3125 44.9646 70.3125C41.7829 70.3125 38.7859 69.0732 36.5271 66.8145C36.404 66.6914 36.2898 66.5684 36.1667 66.4365L38.364 64.7139C38.4687 64.6329 38.5484 64.524 38.5939 64.3997C38.6395 64.2755 38.649 64.1409 38.6215 64.0114C38.5939 63.8819 38.5304 63.7629 38.4382 63.6679C38.346 63.573 38.2289 63.506 38.1003 63.4746L29.4694 61.3652C29.03 61.2598 28.5993 61.5938 28.5993 62.042L28.5642 70.9541C28.5642 71.543 29.2321 71.877 29.698 71.5078L31.737 69.9082C34.9538 73.5996 39.6823 75.9375 44.9646 75.9375C54.404 75.9375 62.1032 68.458 62.49 59.0889C62.5075 58.6934 62.1911 58.3594 61.7868 58.3594Z" fill="#2F3A55"/>
	</symbol>
	<symbol id="pros2" viewBox="0 0 90 90" fill="none" xmlns="http://www.w3.org/2000/svg">
		<path d="M51.8493 37.6631H71.5368V43.2881H51.8493V37.6631ZM51.8493 23.6006H82.7868V29.2256H51.8493V23.6006ZM51.8493 9.53809H82.7868V15.1631H51.8493V9.53809ZM29.3493 85.4756H18.0993C16.6088 85.4711 15.1807 84.8771 14.1268 83.8232C13.0728 82.7692 12.4788 81.3411 12.4743 79.8506V60.1631C10.9838 60.1586 9.55569 59.5646 8.50176 58.5107C7.44783 57.4567 6.85377 56.0286 6.84932 54.5381V37.6631C6.82871 36.5494 7.03287 35.443 7.4496 34.41C7.86633 33.377 8.48707 32.4386 9.2747 31.651C10.0623 30.8633 11.0007 30.2426 12.0337 29.8259C13.0667 29.4091 14.1731 29.205 15.2868 29.2256H32.1618C33.2755 29.205 34.3819 29.4091 35.4149 29.8259C36.4479 30.2426 37.3863 30.8633 38.1739 31.651C38.9616 32.4386 39.5823 33.377 39.999 34.41C40.4158 35.443 40.6199 36.5494 40.5993 37.6631V54.5381C40.5949 56.0286 40.0008 57.4567 38.9469 58.5107C37.8929 59.5646 36.4648 60.1586 34.9743 60.1631V79.8506C34.9699 81.3411 34.3758 82.7692 33.3219 83.8232C32.2679 84.8771 30.8398 85.4711 29.3493 85.4756ZM15.2868 34.8506C14.9116 34.828 14.5359 34.8853 14.1844 35.0187C13.833 35.1521 13.5138 35.3585 13.248 35.6243C12.9822 35.8901 12.7758 36.2092 12.6424 36.5607C12.5091 36.9121 12.4518 37.2879 12.4743 37.6631V54.5381H18.0993V79.8506H29.3493V54.5381H34.9743V37.6631C34.9969 37.2879 34.9396 36.9121 34.8062 36.5607C34.6729 36.2092 34.4665 35.8901 34.2006 35.6243C33.9348 35.3585 33.6157 35.1521 33.2642 35.0187C32.9128 34.8853 32.537 34.828 32.1618 34.8506H15.2868ZM23.7243 26.4131C21.4993 26.4131 19.3242 25.7533 17.4742 24.5171C15.6241 23.281 14.1822 21.5239 13.3307 19.4683C12.4792 17.4126 12.2564 15.1506 12.6905 12.9683C13.1246 10.786 14.196 8.78148 15.7694 7.20814C17.3427 5.6348 19.3473 4.56334 21.5296 4.12926C23.7118 3.69517 25.9738 3.91796 28.0295 4.76945C30.0852 5.62093 31.8422 7.06287 33.0784 8.91293C34.3145 10.763 34.9743 12.9381 34.9743 15.1631C34.9654 18.144 33.7773 21.0004 31.6694 23.1082C29.5616 25.2161 26.7053 26.4042 23.7243 26.4131ZM23.7243 9.53809C22.6118 9.53809 21.5243 9.86799 20.5992 10.4861C19.6742 11.1042 18.9532 11.9827 18.5275 13.0105C18.1018 14.0383 17.9904 15.1693 18.2074 16.2605C18.4244 17.3516 18.9602 18.3539 19.7468 19.1406C20.5335 19.9272 21.5358 20.463 22.6269 20.68C23.7181 20.8971 24.8491 20.7857 25.8769 20.3599C26.9047 19.9342 27.7833 19.2132 28.4013 18.2882C29.0194 17.3631 29.3493 16.2756 29.3493 15.1631C29.3449 13.6726 28.7508 12.2445 27.6969 11.1905C26.6429 10.1366 25.2148 9.54254 23.7243 9.53809Z" fill="#2F3A55"/>
		<path d="M53.8047 72.0777L62.4429 81.1958L79.2395 62.6089" stroke="#2F3A55" stroke-width="5" stroke-linecap="round"/>
	</symbol>
	<symbol id="pros3" viewBox="0 0 90 90" fill="none" xmlns="http://www.w3.org/2000/svg">
		<path d="M22.5 37.0688C21.027 37.4987 19.6059 38.0898 18.2625 38.8313L18.75 47.325L10.2 46.875C9.4585 48.2185 8.86742 49.6395 8.4375 51.1125L14.7563 56.8313L8.4375 62.4563C8.86066 63.9317 9.45205 65.3535 10.2 66.6938L18.75 66.3563L18.3188 74.8688C19.6627 75.6044 21.0838 76.1892 22.5563 76.6125L28.275 70.2938L33.9 76.6125C35.3748 76.196 36.7967 75.6109 38.1375 74.8688L37.7063 66.3563L46.2188 66.7875C46.9608 65.4467 47.5459 64.0248 47.9625 62.55L41.6438 56.925L47.9625 51.2063C47.5517 49.7024 46.973 48.2496 46.2375 46.875L37.725 47.3063L38.1563 38.8125C36.816 38.0646 35.3941 37.4732 33.9188 37.05L28.2938 43.3688L22.5 37.0688Z" stroke="#2F3A55" stroke-width="4" stroke-linecap="round" stroke-linejoin="round"/>
		<path d="M28.2187 64.275C32.3194 64.275 35.6437 60.9508 35.6437 56.85C35.6437 52.7493 32.3194 49.425 28.2187 49.425C24.118 49.425 20.7937 52.7493 20.7937 56.85C20.7937 60.9508 24.118 64.275 28.2187 64.275Z" stroke="#2F3A55" stroke-width="4" stroke-linecap="round" stroke-linejoin="round"/>
		<path d="M56.0813 13.3875C54.602 13.8082 53.1743 14.3931 51.825 15.1312L52.275 23.6437L43.7625 23.2125C43.0205 24.5533 42.4354 25.9752 42.0188 27.45L48.3188 33.075L42.0188 38.7937C42.4356 40.2983 43.0205 41.7512 43.7625 43.125L52.275 42.6937L51.825 51.1875C53.1735 51.932 54.6012 52.5232 56.0813 52.95L61.7063 46.6312L67.3313 52.95C68.8043 52.52 70.2254 51.929 71.5688 51.1875L71.25 42.675L79.7438 43.1062C80.4853 41.7628 81.0764 40.3417 81.5063 38.8687L75.1875 33.15L81.5063 27.525C81.0831 26.0496 80.4918 24.6277 79.7438 23.2875L71.25 23.6437L71.6813 15.1312C70.3558 14.3982 68.9536 13.8134 67.5 13.3875L61.875 19.7062L56.0813 13.3875Z" stroke="#2F3A55" stroke-width="4" stroke-linecap="round" stroke-linejoin="round"/>
		<path d="M61.7812 40.575C65.8819 40.575 69.2062 37.2507 69.2062 33.15C69.2062 29.0493 65.8819 25.725 61.7812 25.725C57.6805 25.725 54.3562 29.0493 54.3562 33.15C54.3562 37.2507 57.6805 40.575 61.7812 40.575Z" stroke="#2F3A55" stroke-width="4" stroke-linecap="round" stroke-linejoin="round"/>
	</symbol>
	<symbol id="pros4" viewBox="0 0 86 84" fill="none" xmlns="http://www.w3.org/2000/svg">
		<path d="M74.8506 83.6581H63.2406C62.4981 83.6581 61.8906 83.0506 61.8906 82.3081C61.8906 81.5656 62.4981 80.9581 63.2406 80.9581H74.9182C75.6607 80.9581 76.2682 81.5656 76.2682 82.3081C76.2682 83.0506 75.5932 83.6581 74.8507 83.6581H74.8506Z" fill="black"/>
		<path d="M82.5464 78.2582H55.5464C54.0614 78.2582 52.7788 77.0432 52.7788 75.4906V55.2406C52.7788 53.7556 53.9938 52.473 55.5464 52.473H82.5464C84.0314 52.473 85.314 53.688 85.314 55.2406V75.4906C85.314 76.9756 84.099 78.2582 82.5464 78.2582ZM55.5464 55.1739L55.4789 75.4918L82.5468 75.5593C82.5468 75.5593 82.6143 75.5593 82.6143 75.4918V55.2418L55.5464 55.1739Z" fill="black"/>
		<path d="M83.4227 72.7903H54.6669C53.9244 72.7903 53.3169 72.1828 53.3169 71.4403C53.3169 70.6978 53.9244 70.0903 54.6669 70.0903H83.4227C84.1652 70.0903 84.7727 70.6978 84.7727 71.4403C84.7727 72.1828 84.1652 72.7903 83.4227 72.7903Z" fill="black"/>
		<path d="M69.0463 82.7802C68.3038 82.7802 67.6963 82.1727 67.6963 81.4302V77.7178C67.6963 76.9753 68.3038 76.3678 69.0463 76.3678C69.7888 76.3678 70.3963 76.9753 70.3963 77.7178V81.4302C70.3963 82.2402 69.7888 82.7802 69.0463 82.7802Z" fill="black"/>
		<path d="M22.8763 83.6581H11.2663C10.5238 83.6581 9.91626 83.0506 9.91626 82.3081C9.91626 81.5656 10.5238 80.9581 11.2663 80.9581H22.9438C23.6863 80.9581 24.2938 81.5656 24.2938 82.3081C24.2938 83.0506 23.6188 83.6581 22.8763 83.6581H22.8763Z" fill="black"/>
		<path d="M30.5706 78.2582H3.57055C2.08555 78.2582 0.802979 77.0432 0.802979 75.4906V55.2406C0.802979 53.7556 2.01798 52.473 3.57055 52.473H30.5706C32.0556 52.473 33.3381 53.688 33.3381 55.2406V75.4906C33.3381 76.9756 32.0556 78.2582 30.5706 78.2582ZM3.57055 55.1739L3.50305 75.4918L30.5709 75.5593C30.5709 75.5593 30.6384 75.5593 30.6384 75.4918V55.2418L3.57055 55.1739Z" fill="black"/>
		<path d="M31.4483 72.7903H2.69253C1.95003 72.7903 1.34253 72.1828 1.34253 71.4403C1.34253 70.6978 1.95003 70.0903 2.69253 70.0903H31.4483C32.1908 70.0903 32.7983 70.6978 32.7983 71.4403C32.7983 72.1828 32.1908 72.7903 31.4483 72.7903Z" fill="black"/>
		<path d="M17.0705 82.7802C16.328 82.7802 15.7205 82.1727 15.7205 81.4302V77.7178C15.7205 76.9753 16.328 76.3678 17.0705 76.3678C17.813 76.3678 18.4205 76.9753 18.4205 77.7178V81.4302C18.4205 82.2402 17.813 82.7802 17.0705 82.7802Z" fill="black"/>
		<path d="M69.0462 50.5823C68.3037 50.5823 67.6962 49.9748 67.6962 49.2323V43.4947H18.4205V49.2323C18.4205 49.9748 17.813 50.5823 17.0705 50.5823C16.328 50.5823 15.7205 49.9748 15.7205 49.2323V42.1447C15.7205 41.4022 16.328 40.7947 17.0705 40.7947H69.0462C69.7887 40.7947 70.3962 41.4022 70.3962 42.1447V49.2323C70.3962 49.9748 69.7887 50.5823 69.0462 50.5823Z" fill="black"/>
		<path d="M43.0585 43.3601C42.316 43.3601 41.7085 42.7526 41.7085 42.0101V35.1925C41.7085 34.45 42.316 33.8425 43.0585 33.8425C43.801 33.8425 44.4085 34.45 44.4085 35.1925V42.0101C44.4085 42.7526 43.801 43.3601 43.0585 43.3601Z" fill="black"/>
		<path d="M49.3364 31.6823H37.6588C36.9163 31.6823 36.3088 31.0748 36.3088 30.3323C36.3088 29.5898 36.9163 28.9823 37.6588 28.9823H49.3364C50.0789 28.9823 50.6864 29.5898 50.6864 30.3323C50.6864 31.0748 50.0789 31.6823 49.3364 31.6823Z" fill="black"/>
		<path d="M56.9626 26.2823H29.9626C28.4776 26.2823 27.1951 25.0674 27.1951 23.5148V3.26477C27.1951 1.77977 28.4101 0.497192 29.9626 0.497192H56.9626C58.4476 0.497192 59.7302 1.71219 59.7302 3.26477V23.5148C59.7302 25.0672 58.5152 26.2823 56.9626 26.2823ZM29.9626 3.19812L29.8951 23.516L56.963 23.5835C56.963 23.5835 57.0305 23.5835 57.0305 23.516V3.266L29.9626 3.19812Z" fill="black"/>
		<path d="M57.8406 20.8161H29.1527C28.4102 20.8161 27.8027 20.2086 27.8027 19.4661C27.8027 18.7236 28.4102 18.1161 29.1527 18.1161H57.9085C58.651 18.1161 59.2585 18.7236 59.2585 19.4661C59.2585 20.2086 58.5835 20.8161 57.841 20.8161H57.8406Z" fill="black"/>
		<path d="M43.4625 30.8737C42.72 30.8737 42.1125 30.2662 42.1125 29.5237V25.8113C42.1125 25.0688 42.72 24.4613 43.4625 24.4613C44.205 24.4613 44.8125 25.0688 44.8125 25.8113V29.5237C44.8125 30.2662 44.205 30.8737 43.4625 30.8737Z" fill="black"/>
	</symbol>
</svg>

