<svg>
	<symbol id="arrow" width="12" height="7" viewBox="0 0 12 7" fill="none" xmlns="http://www.w3.org/2000/svg">
		<path d="M11.2797 0.966797L5.99968 5.66683L0.719727 0.966797" stroke="#516DB0" stroke-miterlimit="10" stroke-linecap="round" stroke-linejoin="round"/>
	</symbol>
	<symbol id="car"  viewBox="0 0 41 40" fill="none" xmlns="http://www.w3.org/2000/svg">
		<path d="M15.5 35H8V30H10.5V27.5H8V21.25H10.5V18.75H8V12.5H10.5V10H8V5H30.5V15H33V5C33 4.33696 32.7366 3.70107 32.2678 3.23223C31.7989 2.76339 31.163 2.5 30.5 2.5H8C7.33696 2.5 6.70107 2.76339 6.23223 3.23223C5.76339 3.70107 5.5 4.33696 5.5 5V10H3V12.5H5.5V18.75H3V21.25H5.5V27.5H3V30H5.5V35C5.5 35.663 5.76339 36.2989 6.23223 36.7678C6.70107 37.2366 7.33696 37.5 8 37.5H15.5V35Z" fill="currentColor"/>
		<path d="M33.9215 23.8119H30.219V21.25H19.1483C18.5108 21.25 18 21.723 18 22.3134V32.209C18 32.7993 18.5108 33.2723 19.1483 33.2723H20.4724C20.4397 33.4275 20.4234 33.5826 20.4234 33.7454C20.4234 35.1644 21.6575 36.3073 23.19 36.3073C24.7225 36.3073 26.0016 35.1644 25.9567 33.7454C25.9567 33.5826 25.9403 33.4275 25.9076 33.2723H29.4017H30.2109H30.9873C30.9546 33.4275 30.9383 33.5826 30.9383 33.7454C30.9383 35.1644 32.1725 36.3073 33.7049 36.3073C35.2374 36.3073 36.4716 35.1644 36.4716 33.7454C36.4716 33.5826 36.4553 33.4275 36.4226 33.2723H36.8517C37.4892 33.2723 38 32.7993 38 32.1674V28.5005L33.9215 23.8119ZM23.1941 35.5618C22.1316 35.5618 21.2366 34.733 21.2366 33.7491C21.2366 32.7653 22.1316 31.9365 23.1941 31.9365C24.3016 31.9365 25.1516 32.7653 25.1516 33.7491C25.1516 34.733 24.2566 35.5618 23.1941 35.5618ZM25.6052 32.4852C25.1312 31.7095 24.2321 31.1835 23.1941 31.1835C22.1561 31.1835 21.257 31.7057 20.783 32.4852H19.1483C18.9767 32.4852 18.85 32.3679 18.85 32.209V22.3171C18.85 22.1582 18.9767 22.0409 19.1483 22.0409H29.4099V32.489H25.6052V32.4852ZM33.709 35.558C32.6465 35.558 31.7515 34.7292 31.7515 33.7454C31.7515 32.7615 32.6465 31.9327 33.709 31.9327C34.7716 31.9327 35.6665 32.7615 35.6665 33.7454C35.6665 34.7292 34.7716 35.558 33.709 35.558ZM37.199 32.1674C37.199 32.3263 37.0274 32.4814 36.8598 32.4814H36.1201C35.6461 31.7057 34.747 31.1797 33.709 31.1797C32.671 31.1797 31.772 31.7019 31.2979 32.4814H30.2599V24.5574H33.5374L37.199 28.7767V32.1674Z" fill="currentColor" stroke="currentColor" stroke-width="0.75"/>
	</symbol>
	<symbol id="service2"  viewBox="0 0 41 40" fill="none" xmlns="http://www.w3.org/2000/svg">
		<path d="M25.8207 20.0578C26.6873 19.7245 27.6467 19.7245 28.5132 20.0578L34.7157 22.4428C35.4395 22.7216 35.917 23.4178 35.917 24.1928V32.4753C35.917 32.8543 35.8023 33.2243 35.5878 33.5367C35.3734 33.8491 35.0693 34.0892 34.7157 34.2253L28.5132 36.6116C27.6467 36.9449 26.6873 36.9449 25.8207 36.6116L19.6195 34.2253C19.2657 34.0894 18.9613 33.8494 18.7467 33.537C18.532 33.2245 18.417 32.8544 18.417 32.4753V24.1928C18.417 23.8138 18.532 23.4436 18.7467 23.1312C18.9613 22.8188 19.2657 22.5788 19.6195 22.4428L25.8207 20.0578ZM28.0645 21.2241C27.4868 21.0019 26.8472 21.0019 26.2695 21.2241L24.5395 21.8903L31.527 24.5353L33.962 23.4928L28.0645 21.2241ZM34.667 24.5491L27.792 27.4966V35.5316C27.8845 35.5078 27.9745 35.4791 28.0645 35.4441L34.267 33.0591C34.3849 33.0136 34.4862 32.9335 34.5576 32.8293C34.629 32.7251 34.6671 32.6017 34.667 32.4753V24.5503V24.5491ZM26.542 35.5316V27.4966L19.667 24.5503V32.4753C19.6669 32.6017 19.705 32.7251 19.7764 32.8293C19.8478 32.9335 19.9491 33.0136 20.067 33.0591L26.2695 35.4441C26.3595 35.4791 26.4495 35.5078 26.542 35.5316ZM20.372 23.4928L27.167 26.4053L29.872 25.2453L22.7882 22.5628L20.372 23.4928Z" fill="currentColor" stroke="currentColor" stroke-width="0.3"/>
		<path d="M15.5 35H8V30H10.5V27.5H8V21.25H10.5V18.75H8V12.5H10.5V10H8V5H30.5V15H33V5C33 4.33696 32.7366 3.70107 32.2678 3.23223C31.7989 2.76339 31.163 2.5 30.5 2.5H8C7.33696 2.5 6.70107 2.76339 6.23223 3.23223C5.76339 3.70107 5.5 4.33696 5.5 5V10H3V12.5H5.5V18.75H3V21.25H5.5V27.5H3V30H5.5V35C5.5 35.663 5.76339 36.2989 6.23223 36.7678C6.70107 37.2366 7.33696 37.5 8 37.5H15.5V35Z" fill="currentColor"/>
	</symbol>
	<symbol id="service3"  viewBox="0 0 41 40" fill="none" xmlns="http://www.w3.org/2000/svg">
		<path d="M16.3337 29.6428C16.1066 29.6423 15.8798 29.6274 15.6547 29.5983C13.5751 26.2659 12.4236 22.4384 12.3194 18.5118H30.4497C30.474 18.1759 30.5003 17.8409 30.5003 17.4999C30.5003 14.698 29.6695 11.959 28.1128 9.62934C26.5562 7.29965 24.3436 5.48387 21.755 4.41163C19.1664 3.33939 16.3179 3.05884 13.5699 3.60547C10.8218 4.15209 8.29756 5.50133 6.31632 7.48258C4.33507 9.46382 2.98583 11.9881 2.43921 14.7361C1.89258 17.4842 2.17313 20.3326 3.24537 22.9213C4.31761 25.5099 6.13339 27.7224 8.46309 29.2791C10.7928 30.8357 13.5318 31.6666 16.3337 31.6666V29.6428ZM28.4259 16.488H22.3676C22.2588 12.7645 21.3063 9.11432 19.5819 5.81242C21.9684 6.47839 24.0944 7.85777 25.6751 9.76577C27.2557 11.6738 28.2155 14.0193 28.4259 16.488ZM17.0116 5.40159C19.0916 8.73382 20.2434 12.5613 20.3479 16.488H12.3194C12.4239 12.5613 13.5757 8.73382 15.6557 5.40159C16.1064 5.34247 16.5629 5.34247 17.0137 5.40159H17.0116ZM13.0844 5.81141C11.3603 9.11373 10.4081 12.7643 10.2997 16.488H4.2414C4.45193 14.0193 5.4118 11.6739 6.99244 9.76591C8.57308 7.85794 10.698 6.4775 13.0844 5.81141ZM4.2414 18.5118H10.2997C10.4086 22.2353 11.3611 25.8855 13.0855 29.1874C10.699 28.5213 8.57308 27.1419 6.99244 25.2339C5.4118 23.326 4.45193 20.9805 4.2414 18.5118Z" fill="currentColor"/>
		<path d="M35.0947 24.0151H31.7008V21.6667H21.5526C20.9683 21.6667 20.5 22.1004 20.5 22.6415V31.7125C20.5 32.2536 20.9683 32.6872 21.5526 32.6872H22.7664C22.7364 32.8294 22.7214 32.9717 22.7214 33.1208C22.7214 34.4216 23.8527 35.4692 25.2575 35.4692C26.6623 35.4692 27.8348 34.4216 27.7936 33.1208C27.7936 32.9717 27.7786 32.8294 27.7487 32.6872H30.9516H31.6933H32.4051C32.3751 32.8294 32.3601 32.9717 32.3601 33.1208C32.3601 34.4216 33.4914 35.4692 34.8962 35.4692C36.301 35.4692 37.4323 34.4216 37.4323 33.1208C37.4323 32.9717 37.4173 32.8294 37.3873 32.6872H37.7807C38.3651 32.6872 38.8333 32.2536 38.8333 31.6743V28.313L35.0947 24.0151ZM25.2613 34.7859C24.2873 34.7859 23.4669 34.0262 23.4669 33.1243C23.4669 32.2224 24.2873 31.4627 25.2613 31.4627C26.2765 31.4627 27.0556 32.2224 27.0556 33.1243C27.0556 34.0262 26.2353 34.7859 25.2613 34.7859ZM27.4715 31.9657C27.0369 31.2546 26.2128 30.7724 25.2613 30.7724C24.3098 30.7724 23.4856 31.2511 23.0511 31.9657H21.5526C21.3953 31.9657 21.2792 31.8582 21.2792 31.7125V22.645C21.2792 22.4993 21.3953 22.3917 21.5526 22.3917H30.9591V31.9692H27.4715V31.9657ZM34.8999 34.7824C33.926 34.7824 33.1056 34.0227 33.1056 33.1208C33.1056 32.2189 33.926 31.4593 34.8999 31.4593C35.8739 31.4593 36.6943 32.2189 36.6943 33.1208C36.6943 34.0227 35.8739 34.7824 34.8999 34.7824ZM38.0991 31.6743C38.0991 31.82 37.9418 31.9622 37.7882 31.9622H37.1101C36.6756 31.2511 35.8514 30.769 34.8999 30.769C33.9484 30.769 33.1243 31.2477 32.6898 31.9622H31.7382V24.6985H34.7426L38.0991 28.5663V31.6743Z" fill="currentColor" stroke="currentColor" stroke-width="0.6875"/>
	</symbol>
	<symbol id="service4"  viewBox="0 0 41 40" fill="none" xmlns="http://www.w3.org/2000/svg">
		<g clip-path="url(#clip0_7867_411849)">
		<path d="M9.79688 18.7902H15.6406V23.6912H9.79688V18.7902ZM9.79688 30.2101H15.6406V25.3091H9.79688V30.2101ZM9.79688 36.7133H15.6406V31.8124H9.79688V36.7133ZM17.375 30.2101H23.2031V25.3091H17.3594V30.2101H17.375ZM17.375 36.7133H23.2031V31.8124H17.3594V36.7133H17.375ZM24.9531 31.8124V36.7133H30.7969V31.8124H24.9531ZM40.0781 12.6954L20.2812 3.33325L0.5 12.7268L1.73438 15.3187L4.25 14.1091V36.729H7.09375V14.0149H33.5V36.7605H36.3438V14.1405L38.8594 15.3187L40.0781 12.6954Z" fill="currentColor"/>
		</g>
		<defs>
		<clipPath id="clip0_7867_411849">
		<rect width="40" height="40" fill="white" transform="translate(0.5)"/>
		</clipPath>
		</defs>
	</symbol>
	<svg id="service5"  viewBox="0 0 41 40" fill="none" xmlns="http://www.w3.org/2000/svg">
		<g clip-path="url(#clip0_7867_411843)">
		<path d="M40.078 12.6954L20.2812 3.33325L0.499909 12.7268L1.73428 15.3187L4.24991 14.1091V36.729H7.09366V14.0149H33.4999V36.7605H36.3437V14.1405L38.8593 15.3187L40.078 12.6954Z" fill="currentColor"/>
		<path d="M26.9307 22.8203H23.5367V20.4719H13.3886C12.8042 20.4719 12.3359 20.9055 12.3359 21.4467V30.5177C12.3359 31.0588 12.8042 31.4924 13.3886 31.4924H14.6023C14.5723 31.6346 14.5574 31.7768 14.5574 31.926C14.5574 33.2268 15.6887 34.2744 17.0935 34.2744C18.4982 34.2744 19.6708 33.2268 19.6296 31.926C19.6296 31.7768 19.6146 31.6346 19.5846 31.4924H22.7875H23.5292H24.241C24.211 31.6346 24.196 31.7768 24.196 31.926C24.196 33.2268 25.3274 34.2744 26.7321 34.2744C28.1369 34.2744 29.2682 33.2268 29.2682 31.926C29.2682 31.7768 29.2533 31.6346 29.2233 31.4924H29.6166C30.201 31.4924 30.6693 31.0588 30.6693 30.4795V27.1182L26.9307 22.8203ZM17.0972 33.591C16.1232 33.591 15.3028 32.8314 15.3028 31.9295C15.3028 31.0276 16.1232 30.2679 17.0972 30.2679C18.1124 30.2679 18.8916 31.0276 18.8916 31.9295C18.8916 32.8314 18.0712 33.591 17.0972 33.591ZM19.3074 30.7709C18.8729 30.0598 18.0487 29.5776 17.0972 29.5776C16.1457 29.5776 15.3216 30.0563 14.887 30.7709H13.3886C13.2313 30.7709 13.1151 30.6633 13.1151 30.5177V21.4501C13.1151 21.3044 13.2313 21.1969 13.3886 21.1969H22.795V30.7744H19.3074V30.7709ZM26.7359 33.5876C25.7619 33.5876 24.9415 32.8279 24.9415 31.926C24.9415 31.0241 25.7619 30.2644 26.7359 30.2644C27.7099 30.2644 28.5303 31.0241 28.5303 31.926C28.5303 32.8279 27.7099 33.5876 26.7359 33.5876ZM29.935 30.4795C29.935 30.6252 29.7777 30.7674 29.6241 30.7674H28.9461C28.5115 30.0563 27.6874 29.5741 26.7359 29.5741C25.7844 29.5741 24.9602 30.0528 24.5257 30.7674H23.5742V23.5037H26.5785L29.935 27.3714V30.4795Z" fill="currentColor" stroke="currentColor" stroke-width="0.6875"/>
		</g>
		<defs>
		<clipPath id="clip0_7867_411843">
		<rect width="40" height="40" fill="white" transform="translate(0.5)"/>
		</clipPath>
		</defs>
	</svg>
	<symbol id="burger" width="35" height="35" viewBox="0 0 35 35" fill="none" xmlns="http://www.w3.org/2000/svg">
		<line x1="3" y1="18" x2="33" y2="18" stroke="currentColor" stroke-width="3" stroke-linecap="round"/>
		<line x1="19.5" y1="7.5" x2="33" y2="7.5" stroke="currentColor" stroke-width="3" stroke-linecap="round"/>
		<line x1="3" y1="28.5" x2="16.5" y2="28.5" stroke="currentColor" stroke-width="3" stroke-linecap="round"/>
	</symbol>
	<symbol id="services" width="22" height="22" viewBox="0 0 22 22" fill="none" xmlns="http://www.w3.org/2000/svg">
		<g clip-path="url(#clip0_10017_458947)">
		<path d="M9.16661 0H0.833346C0.373094 0 0 0.373094 0 0.833346V9.16665C0 9.62691 0.373094 10 0.833346 10H9.16665C9.62691 10 10 9.62691 10 9.16665V0.833346C9.99995 0.373094 9.62686 0 9.16661 0ZM8.33331 8.33331H1.66664V1.66664H8.33326V8.33331H8.33331Z" fill="#2F3A55"/>
		<path d="M9.16661 12H0.833346C0.373094 12 0 12.3731 0 12.8333V21.1666C0 21.6269 0.373094 22 0.833346 22H9.16665C9.62691 22 10 21.6269 10 21.1666V12.8333C9.99995 12.3731 9.62686 12 9.16661 12ZM8.33331 20.3333H1.66664V13.6667H8.33326V20.3333H8.33331Z" fill="#FF7D05"/>
		<path d="M21.1667 0H12.8333C12.3731 0 12 0.373094 12 0.833345V9.16665C12 9.6269 12.3731 9.99999 12.8333 9.99999H21.1667C21.6269 9.99999 22 9.6269 22 9.16665V0.833345C22 0.373094 21.6269 0 21.1667 0ZM20.3333 8.3333H13.6667V1.66664H20.3333V8.3333Z" fill="#FF7D05"/>
		<path d="M21.1667 12H12.8333C12.3731 12 12 12.3731 12 12.8333V21.1666C12 21.6269 12.3731 22 12.8333 22H21.1667C21.6269 22 22 21.6269 22 21.1666V12.8333C22 12.3731 21.6269 12 21.1667 12ZM20.3333 20.3333H13.6667V13.6666H20.3333V20.3333Z" fill="#2F3A55"/>
		</g>
		<defs>
		<clipPath id="clip0_10017_458947">
		<rect width="22" height="22" fill="white"/>
		</clipPath>
		</defs>
	</symbol>
	<symbol id="reg" width="22" height="22" viewBox="0 0 22 22" fill="none" xmlns="http://www.w3.org/2000/svg">
		<path d="M2.72446 22C1.97523 22 1.33408 21.731 0.80099 21.1929C0.266997 20.6539 0 20.0063 0 19.25C0 18.4937 0.266997 17.8461 0.80099 17.3071C1.33408 16.769 1.97523 16.5 2.72446 16.5C3.47368 16.5 4.11484 16.769 4.64793 17.3071C5.18192 17.8461 5.44892 18.4937 5.44892 19.25C5.44892 20.0063 5.18192 20.6539 4.64793 21.1929C4.11484 21.731 3.47368 22 2.72446 22ZM2.72446 13.75C1.97523 13.75 1.33408 13.4805 0.80099 12.9415C0.266997 12.4034 0 11.7563 0 11C0 10.2437 0.266997 9.59612 0.80099 9.05713C1.33408 8.51904 1.97523 8.25 2.72446 8.25C3.47368 8.25 4.11484 8.51904 4.64793 9.05713C5.18192 9.59612 5.44892 10.2437 5.44892 11C5.44892 11.7563 5.18192 12.4034 4.64793 12.9415C4.11484 13.4805 3.47368 13.75 2.72446 13.75ZM2.72446 5.5C1.97523 5.5 1.33408 5.2305 0.80099 4.6915C0.266997 4.15342 0 3.50625 0 2.75C0 1.99375 0.266997 1.34658 0.80099 0.8085C1.33408 0.2695 1.97523 0 2.72446 0C3.47368 0 4.11484 0.2695 4.64793 0.8085C5.18192 1.34658 5.44892 1.99375 5.44892 2.75C5.44892 3.50625 5.18192 4.15342 4.64793 4.6915C4.11484 5.2305 3.47368 5.5 2.72446 5.5ZM10.8978 13.75C10.1486 13.75 9.50745 13.4805 8.97437 12.9415C8.44037 12.4034 8.17337 11.7563 8.17337 11C8.17337 10.2437 8.44037 9.59612 8.97437 9.05713C9.50745 8.51904 10.1486 8.25 10.8978 8.25C11.6471 8.25 12.2887 8.51904 12.8227 9.05713C13.3557 9.59612 13.6223 10.2437 13.6223 11L10.8978 13.75ZM10.8978 5.5C10.1486 5.5 9.50745 5.2305 8.97437 4.6915C8.44037 4.15342 8.17337 3.50625 8.17337 2.75C8.17337 1.99375 8.44037 1.34658 8.97437 0.8085C9.50745 0.2695 10.1486 0 10.8978 0C11.6471 0 12.2887 0.2695 12.8227 0.8085C13.3557 1.34658 13.6223 1.99375 13.6223 2.75C13.6223 3.50625 13.3557 4.15342 12.8227 4.6915C12.2887 5.2305 11.6471 5.5 10.8978 5.5ZM9.5356 22V19.0781L16.7554 11.7906L19.6502 14.7125L12.4303 22H9.5356ZM19.0712 5.5C18.322 5.5 17.6804 5.2305 17.1464 4.6915C16.6133 4.15342 16.3467 3.50625 16.3467 2.75C16.3467 1.99375 16.6133 1.34658 17.1464 0.8085C17.6804 0.2695 18.322 0 19.0712 0C19.8204 0 20.462 0.2695 20.996 0.8085C21.5291 1.34658 21.7957 1.99375 21.7957 2.75C21.7957 3.50625 21.5291 4.15342 20.996 4.6915C20.462 5.2305 19.8204 5.5 19.0712 5.5ZM20.6037 13.75L17.709 10.8281L18.6966 9.83125C18.969 9.55625 19.2928 9.41875 19.6679 9.41875C20.042 9.41875 20.354 9.55625 20.6037 9.83125L21.5913 10.8281C21.8638 11.0802 22 11.3951 22 11.7728C22 12.1513 21.8638 12.4781 21.5913 12.7531L20.6037 13.75Z" fill="currentColor"/>
	</symbol>
	<svg id="logout" width="22" height="22" viewBox="0 0 22 22" fill="none" xmlns="http://www.w3.org/2000/svg">
		<g clip-path="url(#clip0_10017_459095)">
		<path d="M19.2593 20.6103H11.0371C10.8081 20.6103 10.6236 20.7948 10.6236 21.0238C10.6236 21.2529 10.8081 21.4374 11.0371 21.4374H19.2593C20.4942 21.4374 21.5 20.4316 21.5 19.1967V2.75245C21.5 1.51755 20.4942 0.511719 19.2593 0.511719H11.0371C10.8081 0.511719 10.6236 0.696238 10.6236 0.925354C10.6236 1.15441 10.8081 1.3389 11.0371 1.3389H19.2593C20.0397 1.3389 20.6729 1.972 20.6729 2.75245V19.1967C20.6729 19.9771 20.0398 20.6103 19.2593 20.6103Z" fill="currentColor" stroke="currentColor"/>
		<path d="M0.272482 10.3226L5.82699 4.84114C6.18512 4.48666 6.76431 4.49126 7.11878 4.85029C7.47325 5.20931 7.4696 5.7876 7.10962 6.14207L3.14018 10.0594H13.7769C14.2821 10.0594 14.6904 10.4678 14.6904 10.973C14.6904 11.4782 14.2821 11.8866 13.7769 11.8866H3.14018L7.10962 15.8039C7.46955 16.1584 7.4723 16.7367 7.11878 17.0957C6.93974 17.2766 6.70402 17.368 6.46831 17.368C6.23625 17.368 6.00423 17.2803 5.82699 17.1048L0.272482 11.6234C0.0988979 11.4517 0.000247002 11.2178 0.000247002 10.9729C0.000247002 10.7282 0.0979958 10.4952 0.272482 10.3226Z" fill="currentColor"/>
		</g>
		<defs>
		<clipPath id="clip0_10017_459095">
		<rect width="22" height="22" fill="currentColor"/>
		</clipPath>
		</defs>
	</svg>
</svg>

