<svg width="41" height="40" viewBox="0 0 41 40" fill="none" xmlns="http://www.w3.org/2000/svg">
<path d="M16.3337 29.6428C16.1066 29.6423 15.8798 29.6274 15.6547 29.5983C13.5751 26.2659 12.4236 22.4384 12.3194 18.5118H30.4497C30.474 18.1759 30.5003 17.8409 30.5003 17.4999C30.5003 14.698 29.6695 11.959 28.1128 9.62934C26.5562 7.29965 24.3436 5.48387 21.755 4.41163C19.1664 3.33939 16.3179 3.05884 13.5699 3.60547C10.8218 4.15209 8.29756 5.50133 6.31632 7.48258C4.33507 9.46382 2.98583 11.9881 2.43921 14.7361C1.89258 17.4842 2.17313 20.3326 3.24537 22.9213C4.31761 25.5099 6.13339 27.7224 8.46309 29.2791C10.7928 30.8357 13.5318 31.6666 16.3337 31.6666V29.6428ZM28.4259 16.488H22.3676C22.2588 12.7645 21.3063 9.11432 19.5819 5.81242C21.9684 6.47839 24.0944 7.85777 25.6751 9.76577C27.2557 11.6738 28.2155 14.0193 28.4259 16.488ZM17.0116 5.40159C19.0916 8.73382 20.2434 12.5613 20.3479 16.488H12.3194C12.4239 12.5613 13.5757 8.73382 15.6557 5.40159C16.1064 5.34247 16.5629 5.34247 17.0137 5.40159H17.0116ZM13.0844 5.81141C11.3603 9.11373 10.4081 12.7643 10.2997 16.488H4.2414C4.45193 14.0193 5.4118 11.6739 6.99244 9.76591C8.57308 7.85794 10.698 6.4775 13.0844 5.81141ZM4.2414 18.5118H10.2997C10.4086 22.2353 11.3611 25.8855 13.0855 29.1874C10.699 28.5213 8.57308 27.1419 6.99244 25.2339C5.4118 23.326 4.45193 20.9805 4.2414 18.5118Z" fill="#FF7D05"/>
<path d="M35.0947 24.0151H31.7008V21.6667H21.5526C20.9683 21.6667 20.5 22.1004 20.5 22.6415V31.7125C20.5 32.2536 20.9683 32.6872 21.5526 32.6872H22.7664C22.7364 32.8294 22.7214 32.9717 22.7214 33.1208C22.7214 34.4216 23.8527 35.4692 25.2575 35.4692C26.6623 35.4692 27.8348 34.4216 27.7936 33.1208C27.7936 32.9717 27.7786 32.8294 27.7487 32.6872H30.9516H31.6933H32.4051C32.3751 32.8294 32.3601 32.9717 32.3601 33.1208C32.3601 34.4216 33.4914 35.4692 34.8962 35.4692C36.301 35.4692 37.4323 34.4216 37.4323 33.1208C37.4323 32.9717 37.4173 32.8294 37.3873 32.6872H37.7807C38.3651 32.6872 38.8333 32.2536 38.8333 31.6743V28.313L35.0947 24.0151ZM25.2613 34.7859C24.2873 34.7859 23.4669 34.0262 23.4669 33.1243C23.4669 32.2224 24.2873 31.4627 25.2613 31.4627C26.2765 31.4627 27.0556 32.2224 27.0556 33.1243C27.0556 34.0262 26.2353 34.7859 25.2613 34.7859ZM27.4715 31.9657C27.0369 31.2546 26.2128 30.7724 25.2613 30.7724C24.3098 30.7724 23.4856 31.2511 23.0511 31.9657H21.5526C21.3953 31.9657 21.2792 31.8582 21.2792 31.7125V22.645C21.2792 22.4993 21.3953 22.3917 21.5526 22.3917H30.9591V31.9692H27.4715V31.9657ZM34.8999 34.7824C33.926 34.7824 33.1056 34.0227 33.1056 33.1208C33.1056 32.2189 33.926 31.4593 34.8999 31.4593C35.8739 31.4593 36.6943 32.2189 36.6943 33.1208C36.6943 34.0227 35.8739 34.7824 34.8999 34.7824ZM38.0991 31.6743C38.0991 31.82 37.9418 31.9622 37.7882 31.9622H37.1101C36.6756 31.2511 35.8514 30.769 34.8999 30.769C33.9484 30.769 33.1243 31.2477 32.6898 31.9622H31.7382V24.6985H34.7426L38.0991 28.5663V31.6743Z" fill="#FF7D05" stroke="#FF7D05" stroke-width="0.6875"/>
</svg>
