<svg width="41" height="40" viewBox="0 0 41 40" fill="none" xmlns="http://www.w3.org/2000/svg">
<path d="M25.8207 20.0578C26.6873 19.7245 27.6467 19.7245 28.5132 20.0578L34.7157 22.4428C35.4395 22.7216 35.917 23.4178 35.917 24.1928V32.4753C35.917 32.8543 35.8023 33.2243 35.5878 33.5367C35.3734 33.8491 35.0693 34.0892 34.7157 34.2253L28.5132 36.6116C27.6467 36.9449 26.6873 36.9449 25.8207 36.6116L19.6195 34.2253C19.2657 34.0894 18.9613 33.8494 18.7467 33.537C18.532 33.2245 18.417 32.8544 18.417 32.4753V24.1928C18.417 23.8138 18.532 23.4436 18.7467 23.1312C18.9613 22.8188 19.2657 22.5788 19.6195 22.4428L25.8207 20.0578ZM28.0645 21.2241C27.4868 21.0019 26.8472 21.0019 26.2695 21.2241L24.5395 21.8903L31.527 24.5353L33.962 23.4928L28.0645 21.2241ZM34.667 24.5491L27.792 27.4966V35.5316C27.8845 35.5078 27.9745 35.4791 28.0645 35.4441L34.267 33.0591C34.3849 33.0136 34.4862 32.9335 34.5576 32.8293C34.629 32.7251 34.6671 32.6017 34.667 32.4753V24.5503V24.5491ZM26.542 35.5316V27.4966L19.667 24.5503V32.4753C19.6669 32.6017 19.705 32.7251 19.7764 32.8293C19.8478 32.9335 19.9491 33.0136 20.067 33.0591L26.2695 35.4441C26.3595 35.4791 26.4495 35.5078 26.542 35.5316ZM20.372 23.4928L27.167 26.4053L29.872 25.2453L22.7882 22.5628L20.372 23.4928Z" fill="#FF7D05" stroke="#FF7D05" stroke-width="0.3"/>
<path d="M15.5 35H8V30H10.5V27.5H8V21.25H10.5V18.75H8V12.5H10.5V10H8V5H30.5V15H33V5C33 4.33696 32.7366 3.70107 32.2678 3.23223C31.7989 2.76339 31.163 2.5 30.5 2.5H8C7.33696 2.5 6.70107 2.76339 6.23223 3.23223C5.76339 3.70107 5.5 4.33696 5.5 5V10H3V12.5H5.5V18.75H3V21.25H5.5V27.5H3V30H5.5V35C5.5 35.663 5.76339 36.2989 6.23223 36.7678C6.70107 37.2366 7.33696 37.5 8 37.5H15.5V35Z" fill="#FF7D05"/>
</svg>
