<svg width="41" height="40" viewBox="0 0 41 40" fill="none" xmlns="http://www.w3.org/2000/svg">
<g clip-path="url(#clip0_7867_411843)">
<path d="M40.078 12.6954L20.2812 3.33325L0.499909 12.7268L1.73428 15.3187L4.24991 14.1091V36.729H7.09366V14.0149H33.4999V36.7605H36.3437V14.1405L38.8593 15.3187L40.078 12.6954Z" fill="currentColor"/>
<path d="M26.9307 22.8203H23.5367V20.4719H13.3886C12.8042 20.4719 12.3359 20.9055 12.3359 21.4467V30.5177C12.3359 31.0588 12.8042 31.4924 13.3886 31.4924H14.6023C14.5723 31.6346 14.5574 31.7768 14.5574 31.926C14.5574 33.2268 15.6887 34.2744 17.0935 34.2744C18.4982 34.2744 19.6708 33.2268 19.6296 31.926C19.6296 31.7768 19.6146 31.6346 19.5846 31.4924H22.7875H23.5292H24.241C24.211 31.6346 24.196 31.7768 24.196 31.926C24.196 33.2268 25.3274 34.2744 26.7321 34.2744C28.1369 34.2744 29.2682 33.2268 29.2682 31.926C29.2682 31.7768 29.2533 31.6346 29.2233 31.4924H29.6166C30.201 31.4924 30.6693 31.0588 30.6693 30.4795V27.1182L26.9307 22.8203ZM17.0972 33.591C16.1232 33.591 15.3028 32.8314 15.3028 31.9295C15.3028 31.0276 16.1232 30.2679 17.0972 30.2679C18.1124 30.2679 18.8916 31.0276 18.8916 31.9295C18.8916 32.8314 18.0712 33.591 17.0972 33.591ZM19.3074 30.7709C18.8729 30.0598 18.0487 29.5776 17.0972 29.5776C16.1457 29.5776 15.3216 30.0563 14.887 30.7709H13.3886C13.2313 30.7709 13.1151 30.6633 13.1151 30.5177V21.4501C13.1151 21.3044 13.2313 21.1969 13.3886 21.1969H22.795V30.7744H19.3074V30.7709ZM26.7359 33.5876C25.7619 33.5876 24.9415 32.8279 24.9415 31.926C24.9415 31.0241 25.7619 30.2644 26.7359 30.2644C27.7099 30.2644 28.5303 31.0241 28.5303 31.926C28.5303 32.8279 27.7099 33.5876 26.7359 33.5876ZM29.935 30.4795C29.935 30.6252 29.7777 30.7674 29.6241 30.7674H28.9461C28.5115 30.0563 27.6874 29.5741 26.7359 29.5741C25.7844 29.5741 24.9602 30.0528 24.5257 30.7674H23.5742V23.5037H26.5785L29.935 27.3714V30.4795Z" fill="#FF7D05" stroke="#FF7D05" stroke-width="0.6875"/>
</g>
<defs>
<clipPath id="clip0_7867_411843">
<rect width="40" height="40" fill="white" transform="translate(0.5)"/>
</clipPath>
</defs>
</svg>
