<svg width="41" height="40" viewBox="0 0 41 40" fill="none" xmlns="http://www.w3.org/2000/svg">
<g clip-path="url(#clip0_7867_411849)">
<path d="M9.79688 18.7902H15.6406V23.6912H9.79688V18.7902ZM9.79688 30.2101H15.6406V25.3091H9.79688V30.2101ZM9.79688 36.7133H15.6406V31.8124H9.79688V36.7133ZM17.375 30.2101H23.2031V25.3091H17.3594V30.2101H17.375ZM17.375 36.7133H23.2031V31.8124H17.3594V36.7133H17.375ZM24.9531 31.8124V36.7133H30.7969V31.8124H24.9531ZM40.0781 12.6954L20.2812 3.33325L0.5 12.7268L1.73438 15.3187L4.25 14.1091V36.729H7.09375V14.0149H33.5V36.7605H36.3438V14.1405L38.8594 15.3187L40.0781 12.6954Z" fill="#FF7D05"/>
</g>
<defs>
<clipPath id="clip0_7867_411849">
<rect width="40" height="40" fill="white" transform="translate(0.5)"/>
</clipPath>
</defs>
</svg>
