<svg width="22" height="22" viewBox="0 0 22 22" fill="none" xmlns="http://www.w3.org/2000/svg">
<g clip-path="url(#clip0_10017_459095)">
<path d="M19.2593 20.6103H11.0371C10.8081 20.6103 10.6236 20.7948 10.6236 21.0238C10.6236 21.2529 10.8081 21.4374 11.0371 21.4374H19.2593C20.4942 21.4374 21.5 20.4316 21.5 19.1967V2.75245C21.5 1.51755 20.4942 0.511719 19.2593 0.511719H11.0371C10.8081 0.511719 10.6236 0.696238 10.6236 0.925354C10.6236 1.15441 10.8081 1.3389 11.0371 1.3389H19.2593C20.0397 1.3389 20.6729 1.972 20.6729 2.75245V19.1967C20.6729 19.9771 20.0398 20.6103 19.2593 20.6103Z" fill="#F6F6FA" stroke="#F6F6FA"/>
<path d="M0.272482 10.3226L5.82699 4.84114C6.18512 4.48666 6.76431 4.49126 7.11878 4.85029C7.47325 5.20931 7.4696 5.7876 7.10962 6.14207L3.14018 10.0594H13.7769C14.2821 10.0594 14.6904 10.4678 14.6904 10.973C14.6904 11.4782 14.2821 11.8866 13.7769 11.8866H3.14018L7.10962 15.8039C7.46955 16.1584 7.4723 16.7367 7.11878 17.0957C6.93974 17.2766 6.70402 17.368 6.46831 17.368C6.23625 17.368 6.00423 17.2803 5.82699 17.1048L0.272482 11.6234C0.0988979 11.4517 0.000247002 11.2178 0.000247002 10.9729C0.000247002 10.7282 0.0979958 10.4952 0.272482 10.3226Z" fill="#F6F6FA"/>
</g>
<defs>
<clipPath id="clip0_10017_459095">
<rect width="22" height="22" fill="white"/>
</clipPath>
</defs>
</svg>
