<svg width="113" height="28" viewBox="0 0 113 28" fill="none" xmlns="http://www.w3.org/2000/svg">
<path d="M48.3579 10.5826C48.2434 10.468 48.0305 10.3125 47.7195 10.116C47.4249 9.91959 47.0565 9.73134 46.6145 9.55127C46.1889 9.3712 45.7224 9.21568 45.2149 9.08472C44.7074 8.93739 44.1918 8.86373 43.6679 8.86373C42.7512 8.86373 42.0555 9.03561 41.5808 9.37938C41.1224 9.72315 40.8932 10.2061 40.8932 10.8281C40.8932 11.3029 41.0406 11.6794 41.3352 11.9577C41.6299 12.2359 42.0719 12.4733 42.6612 12.6698C43.2505 12.8662 43.9872 13.079 44.8711 13.3082C46.017 13.5865 47.0074 13.9302 47.8423 14.3395C48.6935 14.7324 49.3401 15.2562 49.7821 15.911C50.2405 16.5494 50.4697 17.4007 50.4697 18.4647C50.4697 19.3978 50.2978 20.1999 49.954 20.8711C49.6103 21.5259 49.1355 22.0579 48.5298 22.4672C47.9241 22.8764 47.2366 23.1793 46.4672 23.3757C45.6978 23.5558 44.8793 23.6458 44.0117 23.6458C43.1441 23.6458 42.2765 23.5558 41.4089 23.3757C40.5413 23.1956 39.7064 22.9419 38.9043 22.6145C38.1022 22.2707 37.3655 21.8615 36.6943 21.3868L38.1922 18.4647C38.3395 18.6121 38.6014 18.8085 38.9779 19.054C39.3545 19.2832 39.8128 19.5206 40.353 19.7661C40.8932 19.9953 41.4826 20.1918 42.121 20.3555C42.7594 20.5192 43.406 20.601 44.0608 20.601C44.9775 20.601 45.6733 20.4455 46.148 20.1345C46.6227 19.8234 46.8601 19.3814 46.8601 18.8085C46.8601 18.2847 46.6718 17.8754 46.2953 17.5807C45.9188 17.2861 45.395 17.0323 44.7238 16.8195C44.0526 16.5904 43.2587 16.3448 42.342 16.0829C41.2452 15.7719 40.3285 15.4281 39.5918 15.0516C38.8552 14.6587 38.3068 14.1676 37.9466 13.5783C37.5865 12.989 37.4064 12.2523 37.4064 11.3683C37.4064 10.1733 37.6847 9.17476 38.2413 8.37263C38.8142 7.55413 39.5836 6.94026 40.5495 6.53101C41.5153 6.10539 42.5875 5.89258 43.7662 5.89258C44.5847 5.89258 45.3541 5.98261 46.0743 6.16268C46.811 6.34275 47.4985 6.58012 48.137 6.87478C48.7754 7.16944 49.3483 7.48865 49.8558 7.83242L48.3579 10.5826Z" fill="#2F3A55"/>
<path d="M56.8854 14.6096C56.8854 13.5455 57.0737 12.5061 57.4502 11.4911C57.8431 10.4598 58.4078 9.52671 59.1445 8.69185C59.8811 7.84061 60.7815 7.16944 61.8455 6.67834C62.9096 6.17087 64.121 5.91713 65.4797 5.91713C67.0839 5.91713 68.4672 6.26909 69.6295 6.973C70.8081 7.67691 71.6839 8.59363 72.2568 9.72315L69.654 11.5157C69.3594 10.8609 68.9747 10.3452 68.4999 9.9687C68.0252 9.57582 67.5177 9.30572 66.9775 9.15839C66.4373 8.99469 65.9053 8.91284 65.3814 8.91284C64.5302 8.91284 63.7854 9.08472 63.1469 9.42849C62.5249 9.77226 62.001 10.2224 61.5754 10.779C61.1498 11.3356 60.8306 11.9577 60.6178 12.6452C60.4213 13.3327 60.3231 14.0203 60.3231 14.7078C60.3231 15.4772 60.4459 16.222 60.6914 16.9423C60.937 17.6462 61.2808 18.2765 61.7228 18.833C62.1811 19.3733 62.7213 19.8071 63.3434 20.1345C63.9818 20.4455 64.6775 20.601 65.4306 20.601C65.9708 20.601 66.5192 20.511 67.0757 20.3309C67.6323 20.1508 68.148 19.8644 68.6227 19.4715C69.0974 19.0786 69.4658 18.5711 69.7277 17.9491L72.5024 19.5451C72.1586 20.4128 71.5939 21.1494 70.8081 21.7551C70.0387 22.3608 69.1711 22.8191 68.2053 23.1302C67.2394 23.4412 66.2818 23.5967 65.3323 23.5967C64.0882 23.5967 62.9505 23.343 61.9192 22.8355C60.8879 22.3117 59.9957 21.6241 59.2427 20.7729C58.5061 19.9053 57.9249 18.9395 57.4993 17.8754C57.0901 16.795 56.8854 15.7064 56.8854 14.6096Z" fill="#2F3A55"/>
<path d="M92.7246 8.9865H87.1506V23.4494H83.7865V8.9865H78.2126V6.01535H92.7246V8.9865Z" fill="#2F3A55"/>
<path d="M99.7998 23.4494V6.01535H107.191C107.993 6.01535 108.73 6.17905 109.401 6.50645C110.072 6.83385 110.653 7.27584 111.144 7.83242C111.652 8.389 112.045 9.01106 112.323 9.6986C112.601 10.3861 112.74 11.09 112.74 11.8103C112.74 12.7925 112.511 13.7256 112.053 14.6096C111.594 15.4936 110.964 16.2139 110.162 16.7704C109.36 17.327 108.41 17.6053 107.314 17.6053H103.188V23.4494H99.7998ZM103.188 14.6341H107.117C107.526 14.6341 107.895 14.5196 108.222 14.2904C108.55 14.0612 108.812 13.7338 109.008 13.3082C109.204 12.8662 109.303 12.3669 109.303 11.8103C109.303 11.2046 109.188 10.689 108.959 10.2634C108.746 9.83774 108.46 9.51853 108.099 9.30572C107.756 9.09291 107.379 8.9865 106.97 8.9865H103.188V14.6341Z" fill="#2F3A55"/>
<g clip-path="url(#clip0_10024_15784)">
<circle cx="23.473" cy="13.9141" r="3.21077" transform="rotate(135 23.473 13.9141)" fill="#FF7D05"/>
<circle cx="14.6214" cy="22.7705" r="3.21077" transform="rotate(135 14.6214 22.7705)" fill="#FF7D05"/>
<rect x="23.791" y="16.4131" width="10.0818" height="3.91714" transform="rotate(135 23.791 16.4131)" fill="#FF7D05"/>
<ellipse cx="22.3388" cy="21.6338" rx="4.78405" ry="4.27033" transform="rotate(135 22.3388 21.6338)" fill="#F6F6FA"/>
<ellipse cx="15.7558" cy="15.0498" rx="4.78405" ry="4.27033" transform="rotate(135 15.7558 15.0498)" fill="#F6F6FA"/>
<circle cx="14.1614" cy="4.60352" r="3.21077" transform="rotate(135 14.1614 4.60352)" fill="#FF7D05"/>
<circle cx="5.30694" cy="13.459" r="3.21077" transform="rotate(135 5.30694 13.459)" fill="#FF7D05"/>
<rect x="14.4766" y="7.10059" width="10.0818" height="3.91714" transform="rotate(135 14.4766 7.10059)" fill="#FF7D05"/>
<ellipse cx="13.0234" cy="12.3232" rx="4.78405" ry="4.27033" transform="rotate(135 13.0234 12.3232)" fill="#F6F6FA"/>
<ellipse cx="6.44329" cy="5.73728" rx="4.78405" ry="4.27033" transform="rotate(135 6.44329 5.73728)" fill="#F6F6FA"/>
<circle cx="23.5364" cy="4.21777" r="3.21077" transform="rotate(135 23.5364 4.21777)" fill="#516DB0"/>
<circle cx="14.6819" cy="13.0732" r="3.21077" transform="rotate(135 14.6819 13.0732)" fill="#516DB0"/>
<rect x="23.8516" y="6.71484" width="10.0818" height="3.91714" transform="rotate(135 23.8516 6.71484)" fill="#516DB0"/>
<path d="M18.6725 14.9268C17.9871 14.0225 17.7223 12.8403 17.9363 11.6403C18.1504 10.4403 18.8257 9.32069 19.8139 8.52787C20.8021 7.73506 22.022 7.33394 23.2054 7.41276C24.3889 7.49157 25.4388 8.04388 26.1242 8.94816L24.6506 10.1305C24.2363 9.58385 23.6016 9.24999 22.8862 9.20235C22.1709 9.1547 21.4334 9.39717 20.8361 9.87642C20.2388 10.3557 19.8305 11.0324 19.7011 11.7578C19.5717 12.4832 19.7318 13.1979 20.1461 13.7445L18.6725 14.9268Z" fill="#F6F6FA"/>
<path d="M14.0259 9.69273C14.8016 9.93664 15.6551 9.94996 16.4902 9.73118C17.3253 9.51239 18.1089 9.0702 18.7527 8.45442C19.3965 7.83864 19.8749 7.07373 20.134 6.24587C20.3931 5.41801 20.4227 4.56009 20.2193 3.76875L18.3961 4.42444C18.5152 4.88796 18.4979 5.39047 18.3462 5.87538C18.1944 6.36029 17.9142 6.80833 17.5371 7.16901C17.16 7.5297 16.701 7.78871 16.2118 7.91686C15.7227 8.04501 15.2228 8.03721 14.7684 7.89434L14.0259 9.69273Z" fill="#F6F6FA"/>
<circle cx="5.27556" cy="22.3615" r="3.21077" transform="rotate(-180 5.27556 22.3615)" fill="#516DB0"/>
<circle cx="4.56853" cy="4.57341" r="3.21077" transform="rotate(-180 4.56853 4.57341)" fill="#516DB0"/>
<circle cx="23.4494" cy="22.7463" r="3.21077" transform="rotate(-180 23.4494 22.7463)" fill="#516DB0"/>
</g>
<defs>
<clipPath id="clip0_10024_15784">
<rect width="28" height="28" fill="white"/>
</clipPath>
</defs>
</svg>
