<svg width="22" height="22" viewBox="0 0 22 22" fill="none" xmlns="http://www.w3.org/2000/svg">
<circle cx="18.446" cy="10.9336" r="2.52275" transform="rotate(135 18.446 10.9336)" fill="#FF7D05"/>
<circle cx="11.488" cy="17.8906" r="2.52275" transform="rotate(135 11.488 17.8906)" fill="#FF7D05"/>
<rect x="18.6943" y="12.8984" width="7.92143" height="3.07775" transform="rotate(135 18.6943 12.8984)" fill="#FF7D05"/>
<ellipse cx="17.5535" cy="17.0003" rx="3.7589" ry="3.35526" transform="rotate(135 17.5535 17.0003)" fill="#5476C9"/>
<ellipse cx="12.3797" cy="11.8245" rx="3.7589" ry="3.35526" transform="rotate(135 12.3797 11.8245)" fill="#5476C9"/>
<circle cx="11.1276" cy="3.61719" r="2.52275" transform="rotate(135 11.1276 3.61719)" fill="#FF7D05"/>
<circle cx="4.1696" cy="10.5742" r="2.52275" transform="rotate(135 4.1696 10.5742)" fill="#FF7D05"/>
<rect x="11.376" y="5.58203" width="7.92143" height="3.07775" transform="rotate(135 11.376 5.58203)" fill="#FF7D05"/>
<ellipse cx="10.2352" cy="9.68385" rx="3.7589" ry="3.35526" transform="rotate(135 10.2352 9.68385)" fill="#5476C9"/>
<ellipse cx="5.06133" cy="4.50807" rx="3.7589" ry="3.35526" transform="rotate(135 5.06133 4.50807)" fill="#5476C9"/>
<circle cx="18.4948" cy="3.3125" r="2.52275" transform="rotate(135 18.4948 3.3125)" fill="#2F3A55"/>
<circle cx="11.5368" cy="10.2695" r="2.52275" transform="rotate(135 11.5368 10.2695)" fill="#2F3A55"/>
<rect x="18.7432" y="5.27344" width="7.92143" height="3.07775" transform="rotate(135 18.7432 5.27344)" fill="#2F3A55"/>
<path d="M14.6749 11.7279C14.1363 11.0174 13.9283 10.0885 14.0964 9.14566C14.2646 8.20278 14.7953 7.32312 15.5717 6.70019C16.3481 6.07727 17.3067 5.7621 18.2365 5.82403C19.1663 5.88596 19.9912 6.31991 20.5298 7.03042L19.3719 7.95938C19.0464 7.52989 18.5477 7.26757 17.9857 7.23014C17.4236 7.1927 16.8442 7.38321 16.3748 7.75976C15.9055 8.13632 15.5847 8.66806 15.4831 9.23802C15.3814 9.80798 15.5072 10.3695 15.8327 10.799L14.6749 11.7279Z" fill="#5476C9"/>
<path d="M11.0212 7.61432C11.6306 7.80597 12.3012 7.81643 12.9574 7.64453C13.6136 7.47263 14.2293 7.12519 14.7351 6.64136C15.2409 6.15754 15.6168 5.55654 15.8204 4.90608C16.024 4.25561 16.0472 3.58153 15.8874 2.95977L14.4549 3.47495C14.5485 3.83914 14.5349 4.23398 14.4157 4.61498C14.2964 4.99598 14.0763 5.348 13.78 5.6314C13.4837 5.9148 13.1231 6.1183 12.7387 6.21899C12.3544 6.31968 11.9616 6.31355 11.6046 6.2013L11.0212 7.61432Z" fill="#5476C9"/>
<circle cx="4.1462" cy="17.5671" r="2.52275" transform="rotate(-180 4.1462 17.5671)" fill="#2F3A55"/>
<circle cx="3.59151" cy="3.59053" r="2.52275" transform="rotate(-180 3.59151 3.59053)" fill="#2F3A55"/>
<circle cx="18.4265" cy="17.8718" r="2.52275" transform="rotate(-180 18.4265 17.8718)" fill="#2F3A55"/>
</svg>
