<svg width="129" height="30" viewBox="0 0 129 30" fill="none" xmlns="http://www.w3.org/2000/svg">
<path d="M50.2639 10.0907C50.1238 9.95514 49.8636 9.77118 49.4832 9.53882C49.1228 9.30645 48.6724 9.08377 48.1319 8.87077C47.6114 8.65777 47.0408 8.47381 46.4202 8.3189C45.7996 8.14463 45.169 8.05749 44.5283 8.05749C43.4072 8.05749 42.5564 8.26081 41.9758 8.66745C41.4153 9.07409 41.135 9.64532 41.135 10.3811C41.135 10.9427 41.3152 11.3881 41.6755 11.7172C42.0359 12.0464 42.5764 12.3272 43.2971 12.5596C44.0178 12.7919 44.9187 13.0437 45.9998 13.3148C47.4011 13.6439 48.6123 14.0506 49.6333 14.5347C50.6743 14.9994 51.4651 15.619 52.0056 16.3936C52.5662 17.1488 52.8465 18.1557 52.8465 19.4143C52.8465 20.5181 52.6363 21.4669 52.2159 22.2608C51.7954 23.0354 51.2149 23.6647 50.4742 24.1488C49.7334 24.6329 48.8926 24.9911 47.9517 25.2235C47.0108 25.4365 46.0098 25.543 44.9488 25.543C43.8877 25.543 42.8267 25.4365 41.7656 25.2235C40.7046 25.0105 39.6836 24.7103 38.7026 24.3231C37.7217 23.9164 36.8208 23.4323 36 22.8708L37.8318 19.4143C38.012 19.5886 38.3323 19.821 38.7927 20.1114C39.2532 20.3825 39.8137 20.6633 40.4744 20.9538C41.135 21.2248 41.8557 21.4572 42.6365 21.6509C43.4173 21.8445 44.208 21.9413 45.0088 21.9413C46.1299 21.9413 46.9807 21.7574 47.5613 21.3894C48.1419 21.0215 48.4322 20.4987 48.4322 19.821C48.4322 19.2013 48.2019 18.7172 47.7415 18.3687C47.281 18.0201 46.6404 17.72 45.8196 17.4683C44.9988 17.1972 44.0279 16.9067 42.9068 16.5969C41.5654 16.229 40.4443 15.8224 39.5435 15.377C38.6426 14.9123 37.9719 14.3314 37.5315 13.6343C37.0911 12.9372 36.8709 12.0658 36.8709 11.0201C36.8709 9.60659 37.2112 8.4254 37.8918 7.47658C38.5925 6.50839 39.5335 5.78225 40.7146 5.29816C41.8958 4.7947 43.207 4.54297 44.6485 4.54297C45.6494 4.54297 46.5904 4.64947 47.4712 4.86247C48.3721 5.07547 49.2129 5.35625 49.9937 5.7048C50.7744 6.05334 51.4751 6.43094 52.0957 6.83757L50.2639 10.0907Z" fill="#F6F6FA"/>
<path d="M60.6926 14.8542C60.6926 13.5955 60.9228 12.3659 61.3833 11.1654C61.8637 9.94546 62.5544 8.84172 63.4553 7.85417C64.3562 6.84726 65.4572 6.05334 66.7585 5.47243C68.0598 4.87215 69.5412 4.57201 71.2029 4.57201C73.1648 4.57201 74.8564 4.98834 76.2778 5.82098C77.7192 6.65362 78.7903 7.73799 79.491 9.07409L76.3079 11.1944C75.9475 10.4199 75.477 9.80991 74.8965 9.36455C74.3159 8.89982 73.6953 8.58031 73.0347 8.40604C72.374 8.2124 71.7234 8.11558 71.0827 8.11558C70.0417 8.11558 69.1308 8.3189 68.3501 8.72554C67.5893 9.13218 66.9487 9.66468 66.4282 10.3231C65.9077 10.9814 65.5173 11.7172 65.257 12.5305C65.0168 13.3438 64.8967 14.1571 64.8967 14.9704C64.8967 15.8805 65.0468 16.7615 65.3471 17.6135C65.6474 18.4461 66.0678 19.1917 66.6084 19.85C67.1689 20.489 67.8296 21.0022 68.5903 21.3894C69.3711 21.7574 70.2219 21.9413 71.1428 21.9413C71.8034 21.9413 72.4741 21.8348 73.1548 21.6218C73.8354 21.4088 74.466 21.0699 75.0466 20.6052C75.6272 20.1405 76.0776 19.5402 76.3979 18.8044L79.7913 20.6923C79.3708 21.7186 78.6802 22.59 77.7192 23.3065C76.7783 24.0229 75.7173 24.5651 74.5361 24.933C73.355 25.3009 72.1838 25.4849 71.0227 25.4849C69.5012 25.4849 68.1098 25.1847 66.8486 24.5845C65.5874 23.9648 64.4963 23.1515 63.5754 22.1446C62.6745 21.1183 61.9638 19.9759 61.4433 18.7172C60.9428 17.4392 60.6926 16.1515 60.6926 14.8542Z" fill="#F6F6FA"/>
<path d="M104.522 8.20272H97.7052V25.3106H93.5912V8.20272H86.7745V4.6882H104.522V8.20272Z" fill="#F6F6FA"/>
<path d="M113.175 25.3106V4.6882H122.213C123.194 4.6882 124.095 4.88183 124.916 5.26911C125.737 5.65639 126.448 6.17921 127.048 6.83757C127.669 7.49594 128.149 8.23177 128.49 9.04504C128.83 9.85832 129 10.691 129 11.543C129 12.7048 128.72 13.8085 128.159 14.8542C127.599 15.8998 126.828 16.7518 125.847 17.4102C124.866 18.0686 123.705 18.3977 122.364 18.3977H117.319V25.3106H113.175ZM117.319 14.8832H122.123C122.624 14.8832 123.074 14.7477 123.475 14.4766C123.875 14.2055 124.195 13.8182 124.436 13.3148C124.676 12.7919 124.796 12.2013 124.796 11.543C124.796 10.8265 124.656 10.2166 124.375 9.71309C124.115 9.20964 123.765 8.83204 123.324 8.58031C122.904 8.32858 122.444 8.20272 121.943 8.20272H117.319V14.8832Z" fill="#F6F6FA"/>
<g clip-path="url(#clip0_10017_459166)">
<circle cx="25.1545" cy="14.9102" r="3.44011" transform="rotate(135 25.1545 14.9102)" fill="#FF7D05"/>
<circle cx="15.6672" cy="24.3984" r="3.44011" transform="rotate(135 15.6672 24.3984)" fill="#FF7D05"/>
<rect x="25.4932" y="17.5898" width="10.802" height="4.19694" transform="rotate(135 25.4932 17.5898)" fill="#FF7D05"/>
<ellipse cx="23.9381" cy="23.1861" rx="5.12577" ry="4.57535" transform="rotate(135 23.9381 23.1861)" fill="#5476C9"/>
<ellipse cx="16.8825" cy="16.1275" rx="5.12577" ry="4.57535" transform="rotate(135 16.8825 16.1275)" fill="#5476C9"/>
<circle cx="15.174" cy="4.93359" r="3.44011" transform="rotate(135 15.174 4.93359)" fill="#FF7D05"/>
<circle cx="5.6867" cy="14.4219" r="3.44011" transform="rotate(135 5.6867 14.4219)" fill="#FF7D05"/>
<rect x="15.5127" y="7.61328" width="10.802" height="4.19694" transform="rotate(135 15.5127 7.61328)" fill="#FF7D05"/>
<ellipse cx="13.9577" cy="13.2095" rx="5.12577" ry="4.57535" transform="rotate(135 13.9577 13.2095)" fill="#5476C9"/>
<ellipse cx="6.90199" cy="6.15092" rx="5.12577" ry="4.57535" transform="rotate(135 6.90199 6.15092)" fill="#5476C9"/>
<circle cx="25.2209" cy="4.51562" r="3.44011" transform="rotate(135 25.2209 4.51562)" fill="#2F3A55"/>
<circle cx="15.7336" cy="14.0039" r="3.44011" transform="rotate(135 15.7336 14.0039)" fill="#2F3A55"/>
<rect x="25.5596" y="7.19141" width="10.802" height="4.19694" transform="rotate(135 25.5596 7.19141)" fill="#2F3A55"/>
<path d="M20.0126 15.9944C19.2782 15.0255 18.9944 13.7589 19.2237 12.4731C19.4531 11.1874 20.1767 9.98785 21.2355 9.1384C22.2942 8.28896 23.6013 7.85919 24.8693 7.94363C26.1372 8.02808 27.2621 8.61983 27.9965 9.58871L26.4176 10.8555C25.9737 10.2698 25.2937 9.9121 24.5272 9.86105C23.7608 9.81 22.9707 10.0698 22.3307 10.5833C21.6907 11.0968 21.2532 11.8219 21.1146 12.5991C20.976 13.3763 21.1475 14.1419 21.5914 14.7276L20.0126 15.9944Z" fill="#5476C9"/>
<path d="M15.0304 10.3842C15.8615 10.6456 16.7759 10.6598 17.6707 10.4254C18.5655 10.191 19.405 9.71724 20.0948 9.05747C20.7846 8.39771 21.2972 7.57816 21.5748 6.69117C21.8524 5.80417 21.8841 4.88497 21.6662 4.03711L19.7128 4.73964C19.8404 5.23626 19.8219 5.77467 19.6593 6.29422C19.4966 6.81376 19.1964 7.2938 18.7924 7.68025C18.3884 8.0667 17.8966 8.3442 17.3725 8.48151C16.8484 8.61881 16.3128 8.61045 15.826 8.45738L15.0304 10.3842Z" fill="#5476C9"/>
<circle cx="5.65461" cy="23.9544" r="3.44011" transform="rotate(-180 5.65461 23.9544)" fill="#2F3A55"/>
<circle cx="4.89778" cy="4.89582" r="3.44011" transform="rotate(-180 4.89778 4.89582)" fill="#2F3A55"/>
<circle cx="25.1273" cy="24.3685" r="3.44011" transform="rotate(-180 25.1273 24.3685)" fill="#2F3A55"/>
</g>
<defs>
<clipPath id="clip0_10017_459166">
<rect width="30" height="30" fill="white"/>
</clipPath>
</defs>
</svg>
