<svg width="71" height="16" viewBox="0 0 71 16" fill="none" xmlns="http://www.w3.org/2000/svg">
<path d="M18.2269 10.5586V4.23579H19.4558V9.48105H22.6795V10.5586H18.2269ZM26.1486 10.6031C25.6855 10.6031 25.264 10.5141 24.884 10.336C24.51 10.1579 24.1864 9.91741 23.9133 9.61463C23.6461 9.30591 23.4384 8.96157 23.2899 8.5816C23.1415 8.19571 23.0673 7.8009 23.0673 7.39719C23.0673 6.97567 23.1445 6.57493 23.2988 6.19497C23.4591 5.80907 23.6758 5.4677 23.9489 5.17085C24.228 4.86807 24.5545 4.63059 24.9285 4.45842C25.3085 4.28032 25.7241 4.19126 26.1753 4.19126C26.6324 4.19126 27.048 4.28328 27.422 4.46733C27.802 4.65137 28.1255 4.89775 28.3927 5.20647C28.6599 5.51519 28.8677 5.85953 29.0161 6.23949C29.1645 6.61946 29.2387 7.01129 29.2387 7.415C29.2387 7.83059 29.1615 8.23133 29.0072 8.61723C28.8528 8.99719 28.6361 9.33856 28.3571 9.64134C28.084 9.93819 27.7575 10.1727 27.3775 10.3449C27.0035 10.517 26.5938 10.6031 26.1486 10.6031ZM24.314 7.39719C24.314 7.67029 24.3556 7.93448 24.4387 8.18977C24.5218 8.44506 24.6406 8.67363 24.7949 8.87548C24.9552 9.0714 25.1482 9.22873 25.3738 9.34746C25.6053 9.46027 25.8665 9.51667 26.1575 9.51667C26.4543 9.51667 26.7185 9.4573 26.95 9.33856C27.1816 9.21388 27.3745 9.05062 27.5289 8.84876C27.6832 8.64097 27.799 8.4124 27.8762 8.16305C27.9593 7.90777 28.0009 7.65248 28.0009 7.39719C28.0009 7.12409 27.9563 6.86287 27.8673 6.61352C27.7842 6.35823 27.6625 6.13263 27.5022 5.93671C27.3478 5.73486 27.1549 5.57753 26.9233 5.46473C26.6977 5.34599 26.4424 5.28662 26.1575 5.28662C25.8547 5.28662 25.5875 5.34896 25.356 5.47363C25.1304 5.59237 24.9404 5.75267 24.786 5.95452C24.6317 6.15638 24.5129 6.38198 24.4298 6.63133C24.3526 6.88068 24.314 7.13597 24.314 7.39719ZM32.9704 10.6031C32.5608 10.6031 32.1719 10.52 31.8038 10.3538C31.4417 10.1875 31.1211 9.95897 30.842 9.66806C30.5689 9.37121 30.3552 9.02687 30.2009 8.63504C30.0465 8.2432 29.9693 7.81871 29.9693 7.36157C29.9693 6.92818 30.0465 6.5215 30.2009 6.14154C30.3552 5.75564 30.5719 5.41723 30.8509 5.12633C31.13 4.83542 31.4565 4.60685 31.8305 4.44061C32.2046 4.27438 32.6112 4.19126 33.0506 4.19126C33.6443 4.19126 34.1519 4.31891 34.5734 4.57419C35.0008 4.82354 35.3214 5.15601 35.5352 5.57159L34.6179 6.2484C34.4576 5.93374 34.232 5.6933 33.9411 5.52707C33.6561 5.36083 33.3444 5.27772 33.006 5.27772C32.7389 5.27772 32.4955 5.33412 32.2758 5.44692C32.0561 5.55972 31.8662 5.71408 31.7059 5.91C31.5456 6.10591 31.4209 6.33152 31.3318 6.5868C31.2487 6.84209 31.2072 7.11222 31.2072 7.39719C31.2072 7.69997 31.2517 7.97901 31.3407 8.2343C31.4357 8.48958 31.5663 8.71222 31.7326 8.9022C31.9047 9.09218 32.1036 9.24357 32.3292 9.35637C32.5548 9.46323 32.8042 9.51667 33.0773 9.51667C33.3979 9.51667 33.7036 9.43355 33.9945 9.26732C34.2914 9.10108 34.5675 8.85767 34.8227 8.53708V9.74821C34.2944 10.3181 33.6769 10.6031 32.9704 10.6031ZM34.7337 8.20758H33.4602V7.30814H35.7489V10.5586H34.7337V8.20758ZM36.9582 10.5586V4.23579H38.1871V10.5586H36.9582ZM43.4352 5.89219C43.3936 5.85063 43.3164 5.79423 43.2036 5.72298C43.0968 5.65174 42.9632 5.58347 42.8029 5.51816C42.6485 5.45285 42.4793 5.39645 42.2953 5.34896C42.1112 5.29553 41.9242 5.26881 41.7342 5.26881C41.4018 5.26881 41.1495 5.33115 40.9773 5.45582C40.811 5.5805 40.7279 5.75564 40.7279 5.98124C40.7279 6.15341 40.7814 6.28996 40.8882 6.39089C40.9951 6.49181 41.1554 6.5779 41.3691 6.64914C41.5828 6.72038 41.85 6.79756 42.1706 6.88068C42.5862 6.98161 42.9454 7.10628 43.2481 7.25471C43.5569 7.39719 43.7914 7.58717 43.9517 7.82465C44.1179 8.05619 44.201 8.36491 44.201 8.75081C44.201 9.08921 44.1387 9.38012 44.014 9.62353C43.8893 9.86101 43.7172 10.054 43.4975 10.2024C43.2778 10.3508 43.0285 10.4606 42.7494 10.5319C42.4704 10.5972 42.1736 10.6298 41.8589 10.6298C41.5443 10.6298 41.2296 10.5972 40.9149 10.5319C40.6003 10.4666 40.2975 10.3745 40.0066 10.2558C39.7157 10.1311 39.4485 9.98271 39.2051 9.81054L39.7483 8.75081C39.8018 8.80424 39.8968 8.87548 40.0333 8.96453C40.1699 9.04765 40.3361 9.13374 40.532 9.22279C40.7279 9.30591 40.9417 9.37715 41.1732 9.43652C41.4047 9.49589 41.6392 9.52557 41.8767 9.52557C42.2092 9.52557 42.4615 9.46917 42.6337 9.35637C42.8058 9.24357 42.8919 9.08327 42.8919 8.87548C42.8919 8.6855 42.8237 8.53708 42.6871 8.43021C42.5506 8.32335 42.3606 8.23133 42.1172 8.15415C41.8738 8.07103 41.5858 7.98198 41.2533 7.88699C40.8556 7.77418 40.5231 7.64951 40.2559 7.51296C39.9888 7.37048 39.7899 7.19237 39.6593 6.97864C39.5287 6.76491 39.4634 6.49775 39.4634 6.17716C39.4634 5.74376 39.5643 5.38161 39.7662 5.0907C39.9739 4.79386 40.253 4.57122 40.6033 4.4228C40.9535 4.26844 41.3424 4.19126 41.7699 4.19126C42.0667 4.19126 42.3457 4.22392 42.607 4.28922C42.8741 4.35453 43.1235 4.44061 43.355 4.54748C43.5866 4.65434 43.7943 4.77011 43.9784 4.89479L43.4352 5.89219ZM50.0203 5.31334H47.9988V10.5586H46.7788V5.31334H44.7573V4.23579H50.0203V5.31334ZM53.0076 10.5586V4.23579H55.6881C55.979 4.23579 56.2462 4.29516 56.4896 4.4139C56.733 4.53263 56.9437 4.69293 57.1218 4.89479C57.3059 5.09664 57.4484 5.32224 57.5493 5.57159C57.6502 5.82094 57.7007 6.07623 57.7007 6.33745C57.7007 6.69367 57.6176 7.03207 57.4513 7.35266C57.2851 7.67326 57.0565 7.93448 56.7656 8.13634C56.4747 8.33819 56.1304 8.43912 55.7326 8.43912H54.2365V10.5586H53.0076ZM54.2365 7.36157H55.6614C55.8098 7.36157 55.9434 7.32001 56.0621 7.23689C56.1808 7.15378 56.2758 7.03504 56.3471 6.88068C56.4183 6.72038 56.4539 6.53931 56.4539 6.33745C56.4539 6.11779 56.4124 5.93078 56.3293 5.77642C56.2521 5.62206 56.1482 5.50629 56.0176 5.42911C55.8929 5.35193 55.7564 5.31334 55.6079 5.31334H54.2365V7.36157ZM58.7179 10.5586V4.23579H61.5142C61.8051 4.23579 62.0723 4.29516 62.3157 4.4139C62.5651 4.53263 62.7788 4.69293 62.9569 4.89479C63.1409 5.09664 63.2805 5.32224 63.3754 5.57159C63.4764 5.82094 63.5268 6.07623 63.5268 6.33745C63.5268 6.60461 63.4793 6.86287 63.3844 7.11222C63.2953 7.35563 63.1647 7.56936 62.9925 7.75341C62.8203 7.93745 62.6185 8.07994 62.387 8.18086L63.8296 10.5586H62.476L61.1758 8.43912H59.9469V10.5586H58.7179ZM59.9469 7.36157H61.4875C61.6419 7.36157 61.7784 7.31704 61.8972 7.22799C62.0159 7.133 62.1109 7.00832 62.1821 6.85396C62.2534 6.6996 62.289 6.52743 62.289 6.33745C62.289 6.1356 62.2474 5.96046 62.1643 5.81204C62.0812 5.65768 61.9743 5.53597 61.8437 5.44692C61.7191 5.35786 61.5825 5.31334 61.4341 5.31334H59.9469V7.36157ZM67.4658 10.6031C67.0027 10.6031 66.5812 10.5141 66.2012 10.336C65.8272 10.1579 65.5037 9.91741 65.2306 9.61463C64.9634 9.30591 64.7556 8.96157 64.6072 8.5816C64.4588 8.19571 64.3846 7.8009 64.3846 7.39719C64.3846 6.97567 64.4617 6.57493 64.6161 6.19497C64.7764 5.80907 64.9931 5.4677 65.2662 5.17085C65.5452 4.86807 65.8718 4.63059 66.2458 4.45842C66.6257 4.28032 67.0413 4.19126 67.4925 4.19126C67.9497 4.19126 68.3653 4.28328 68.7393 4.46733C69.1192 4.65137 69.4428 4.89775 69.71 5.20647C69.9771 5.51519 70.1849 5.85953 70.3333 6.23949C70.4818 6.61946 70.556 7.01129 70.556 7.415C70.556 7.83059 70.4788 8.23133 70.3244 8.61723C70.1701 8.99719 69.9534 9.33856 69.6743 9.64134C69.4012 9.93819 69.0747 10.1727 68.6947 10.3449C68.3207 10.517 67.9111 10.6031 67.4658 10.6031ZM65.6313 7.39719C65.6313 7.67029 65.6729 7.93448 65.756 8.18977C65.8391 8.44506 65.9578 8.67363 66.1122 8.87548C66.2725 9.0714 66.4654 9.22873 66.691 9.34746C66.9226 9.46027 67.1838 9.51667 67.4747 9.51667C67.7716 9.51667 68.0358 9.4573 68.2673 9.33856C68.4988 9.21388 68.6918 9.05062 68.8461 8.84876C69.0005 8.64097 69.1163 8.4124 69.1934 8.16305C69.2766 7.90777 69.3181 7.65248 69.3181 7.39719C69.3181 7.12409 69.2736 6.86287 69.1845 6.61352C69.1014 6.35823 68.9797 6.13263 68.8194 5.93671C68.6651 5.73486 68.4721 5.57753 68.2406 5.46473C68.015 5.34599 67.7597 5.28662 67.4747 5.28662C67.1719 5.28662 66.9048 5.34896 66.6732 5.47363C66.4476 5.59237 66.2576 5.75267 66.1033 5.95452C65.9489 6.15638 65.8302 6.38198 65.7471 6.63133C65.6699 6.88068 65.6313 7.13597 65.6313 7.39719Z" fill="#F6F6FA"/>
<rect x="15.1387" y="0.375" width="15.0582" height="0.809577" rx="0.404789" transform="rotate(90 15.1387 0.375)" fill="#F6F6FA"/>
<rect x="0.404789" y="2.31885" width="7.2862" height="7.2862" rx="1.21437" stroke="#516DB0" stroke-width="0.809578"/>
<rect x="5.01905" y="6.93604" width="7.2862" height="7.2862" rx="1.21437" stroke="#FF7D05" stroke-width="0.809578"/>
</svg>
