<svg width="22" height="22" viewBox="0 0 22 22" fill="none" xmlns="http://www.w3.org/2000/svg">
<path d="M2.72446 22C1.97523 22 1.33408 21.731 0.80099 21.1929C0.266997 20.6539 0 20.0063 0 19.25C0 18.4937 0.266997 17.8461 0.80099 17.3071C1.33408 16.769 1.97523 16.5 2.72446 16.5C3.47368 16.5 4.11484 16.769 4.64793 17.3071C5.18192 17.8461 5.44892 18.4937 5.44892 19.25C5.44892 20.0063 5.18192 20.6539 4.64793 21.1929C4.11484 21.731 3.47368 22 2.72446 22ZM2.72446 13.75C1.97523 13.75 1.33408 13.4805 0.80099 12.9415C0.266997 12.4034 0 11.7563 0 11C0 10.2437 0.266997 9.59612 0.80099 9.05713C1.33408 8.51904 1.97523 8.25 2.72446 8.25C3.47368 8.25 4.11484 8.51904 4.64793 9.05713C5.18192 9.59612 5.44892 10.2437 5.44892 11C5.44892 11.7563 5.18192 12.4034 4.64793 12.9415C4.11484 13.4805 3.47368 13.75 2.72446 13.75ZM2.72446 5.5C1.97523 5.5 1.33408 5.2305 0.80099 4.6915C0.266997 4.15342 0 3.50625 0 2.75C0 1.99375 0.266997 1.34658 0.80099 0.8085C1.33408 0.2695 1.97523 0 2.72446 0C3.47368 0 4.11484 0.2695 4.64793 0.8085C5.18192 1.34658 5.44892 1.99375 5.44892 2.75C5.44892 3.50625 5.18192 4.15342 4.64793 4.6915C4.11484 5.2305 3.47368 5.5 2.72446 5.5ZM10.8978 13.75C10.1486 13.75 9.50745 13.4805 8.97437 12.9415C8.44037 12.4034 8.17337 11.7563 8.17337 11C8.17337 10.2437 8.44037 9.59612 8.97437 9.05713C9.50745 8.51904 10.1486 8.25 10.8978 8.25C11.6471 8.25 12.2887 8.51904 12.8227 9.05713C13.3557 9.59612 13.6223 10.2437 13.6223 11L10.8978 13.75ZM10.8978 5.5C10.1486 5.5 9.50745 5.2305 8.97437 4.6915C8.44037 4.15342 8.17337 3.50625 8.17337 2.75C8.17337 1.99375 8.44037 1.34658 8.97437 0.8085C9.50745 0.2695 10.1486 0 10.8978 0C11.6471 0 12.2887 0.2695 12.8227 0.8085C13.3557 1.34658 13.6223 1.99375 13.6223 2.75C13.6223 3.50625 13.3557 4.15342 12.8227 4.6915C12.2887 5.2305 11.6471 5.5 10.8978 5.5ZM9.5356 22V19.0781L16.7554 11.7906L19.6502 14.7125L12.4303 22H9.5356ZM19.0712 5.5C18.322 5.5 17.6804 5.2305 17.1464 4.6915C16.6133 4.15342 16.3467 3.50625 16.3467 2.75C16.3467 1.99375 16.6133 1.34658 17.1464 0.8085C17.6804 0.2695 18.322 0 19.0712 0C19.8204 0 20.462 0.2695 20.996 0.8085C21.5291 1.34658 21.7957 1.99375 21.7957 2.75C21.7957 3.50625 21.5291 4.15342 20.996 4.6915C20.462 5.2305 19.8204 5.5 19.0712 5.5ZM20.6037 13.75L17.709 10.8281L18.6966 9.83125C18.969 9.55625 19.2928 9.41875 19.6679 9.41875C20.042 9.41875 20.354 9.55625 20.6037 9.83125L21.5913 10.8281C21.8638 11.0802 22 11.3951 22 11.7728C22 12.1513 21.8638 12.4781 21.5913 12.7531L20.6037 13.75Z" fill="#F6F6FA"/>
</svg>
