<svg width="22" height="22" viewBox="0 0 22 22" fill="none" xmlns="http://www.w3.org/2000/svg">
<g clip-path="url(#clip0_10017_458947)">
<path d="M9.16661 0H0.833346C0.373094 0 0 0.373094 0 0.833346V9.16665C0 9.62691 0.373094 10 0.833346 10H9.16665C9.62691 10 10 9.62691 10 9.16665V0.833346C9.99995 0.373094 9.62686 0 9.16661 0ZM8.33331 8.33331H1.66664V1.66664H8.33326V8.33331H8.33331Z" fill="#2F3A55"/>
<path d="M9.16661 12H0.833346C0.373094 12 0 12.3731 0 12.8333V21.1666C0 21.6269 0.373094 22 0.833346 22H9.16665C9.62691 22 10 21.6269 10 21.1666V12.8333C9.99995 12.3731 9.62686 12 9.16661 12ZM8.33331 20.3333H1.66664V13.6667H8.33326V20.3333H8.33331Z" fill="#FF7D05"/>
<path d="M21.1667 0H12.8333C12.3731 0 12 0.373094 12 0.833345V9.16665C12 9.6269 12.3731 9.99999 12.8333 9.99999H21.1667C21.6269 9.99999 22 9.6269 22 9.16665V0.833345C22 0.373094 21.6269 0 21.1667 0ZM20.3333 8.3333H13.6667V1.66664H20.3333V8.3333Z" fill="#FF7D05"/>
<path d="M21.1667 12H12.8333C12.3731 12 12 12.3731 12 12.8333V21.1666C12 21.6269 12.3731 22 12.8333 22H21.1667C21.6269 22 22 21.6269 22 21.1666V12.8333C22 12.3731 21.6269 12 21.1667 12ZM20.3333 20.3333H13.6667V13.6666H20.3333V20.3333Z" fill="#2F3A55"/>
</g>
<defs>
<clipPath id="clip0_10017_458947">
<rect width="22" height="22" fill="white"/>
</clipPath>
</defs>
</svg>
