<svg width="18" height="27" viewBox="0 0 18 27" fill="none" xmlns="http://www.w3.org/2000/svg">
<path d="M1.84333 0.336279C1.82631 0.374889 1.63826 2.14501 1.4159 4.26829C1.19354 6.39157 0.99991 8.1949 0.982891 8.27752L0.960013 8.43196H1.4558H1.95158L2.05983 8.05693C2.52716 6.46879 3.37615 4.92439 4.32224 3.94294C5.31939 2.90614 6.73838 2.15608 8.1345 1.91902C8.80131 1.80886 9.83835 1.83073 10.4368 1.9741C11.8385 2.29945 12.9383 3.30304 13.2349 4.52749C13.3487 4.99081 13.3432 5.82349 13.2293 6.27574C12.8817 7.62142 11.913 8.68576 9.77028 10.0755L8.9782 10.5828H4.56748H0.156492V11.3825V12.182L3.10831 12.1877C5.41062 12.1877 6.03168 12.2041 5.9463 12.2538C4.52173 13.1362 3.7807 13.6435 3.09129 14.2116L2.74952 14.4983H1.4558H0.156492V15.2705V16.0427H0.726211C1.03953 16.0427 1.29621 16.0592 1.29621 16.0757C1.29621 16.0921 1.18238 16.2909 1.03981 16.5114C0.469809 17.4213 0.173512 18.3755 0.116596 19.4617C0.0596796 20.664 0.264744 21.6236 0.811864 22.688C2.15106 25.3075 5.19412 26.8792 8.61884 26.7193C9.95804 26.6586 10.807 26.4987 12.5508 25.9693C13.9469 25.5446 14.6252 25.3958 14.8871 25.4398C15.2747 25.5114 15.7077 26.0079 15.7989 26.482L15.8388 26.6861H16.2604C16.6479 26.6861 16.6822 26.6751 16.7107 26.5592C16.7221 26.4931 16.9841 24.7505 17.2807 22.688C17.5826 20.6254 17.8392 18.855 17.8563 18.756L17.8906 18.5794H17.4403H16.9902L16.7963 19.0041C15.4516 22.0316 13.7477 23.995 11.7587 24.8277C11.4794 24.9435 10.9781 25.1034 10.6475 25.1806C10.1118 25.3129 9.92931 25.3296 9.01753 25.3296C7.87782 25.335 7.35358 25.247 6.63543 24.9271C5.6952 24.5191 4.85736 23.7248 4.48127 22.8978C3.90569 21.6404 3.97991 19.9307 4.66374 18.7506C5.11377 17.9786 6.16811 16.9694 7.27936 16.2468L7.59268 16.0427H12.7327H17.8786V15.2705V14.4983H14.1126C11.9699 14.4983 10.3629 14.4762 10.3802 14.4486C10.3975 14.4211 10.648 14.2721 10.9329 14.1176C11.7021 13.6929 12.9844 12.8878 13.4972 12.5127L13.9416 12.182H15.9133H17.8794V11.3823V10.5825H16.7112C16.0673 10.5825 15.5431 10.566 15.5431 10.5493C15.5431 10.5328 15.6173 10.417 15.7082 10.2901C16.6828 8.91148 16.9905 6.80467 16.4774 4.95166C16.1982 3.937 15.5712 2.93314 14.7621 2.19982C12.8588 0.479109 10.6991 -0.061161 7.90098 0.490179C7.5991 0.550928 6.72136 0.799059 5.95774 1.03612C4.24245 1.57099 3.99749 1.62607 3.63841 1.53805C3.49584 1.50484 3.29664 1.41682 3.19397 1.3396C3.01178 1.2073 2.76654 0.766119 2.6926 0.446169L2.65271 0.269588H2.25959C1.99148 0.270128 1.85477 0.292269 1.84333 0.336279Z" fill="#2F3A55"/>
</svg>
